<svg viewBox="0 0 200 32" fill="none" xmlns="http://www.w3.org/2000/svg">
<path d="M5.181 25.37H0L.076 5.105h5.181l-.076 7.766 9.22.075V5.103h5.18v20.34l-5.18-.073v-8.506H5.18v8.506zM38.63 12.352c0-1.332-.38-2.367-1.219-2.959-.838-.665-1.904-.961-3.352-.961-1.067 0-2.133.222-3.124.591-.99.444-1.828.962-2.514 1.554l-2.667-2.885a11.149 11.149 0 0 1 3.886-2.293c1.524-.592 3.2-.888 4.876-.814 2.743 0 4.876.666 6.4 1.924 1.524 1.257 2.362 3.254 2.515 5.917 0 .37.076.813.076 1.183v9.838c0 .74.076 1.405.152 2.071h-4.724c0-.444-.076-.888-.076-1.331 0-.444-.076-.888-.076-1.406h-.076c-.762 1.036-1.676 1.85-2.82 2.367-1.142.518-2.438.814-3.885.814-.838 0-1.676-.148-2.514-.37a6.284 6.284 0 0 1-2.362-1.11c-.686-.517-1.296-1.11-1.753-1.923-.457-.813-.686-1.775-.686-2.958 0-1.48.381-2.737 1.22-3.625.838-.887 1.904-1.553 3.276-2.07 1.371-.445 2.819-.814 4.495-.888a57.185 57.185 0 0 1 5.029-.222l-.077-.444zm-.761 3.698c-.99 0-1.981.074-2.972.148-.99.074-1.905.222-2.667.444a5.555 5.555 0 0 0-1.98 1.035c-.534.444-.762 1.036-.762 1.85 0 .591.152 1.035.38 1.405.23.37.534.666.915.888.38.221.762.37 1.219.517.457.074.914.148 1.371.148 1.753 0 3.048-.517 3.962-1.553.915-1.035 1.372-2.293 1.372-3.772v-1.036l-.838-.074z" fill="#393430"></path>
<path d="M46.5 26.885l-.008 4.892 27.786.038.008-4.892-27.787-.038z" fill="#0E0BAB"></path>
<path d="M81.892 25.519H76.71l.076-20.267h19.2l-.076 20.267h-5.18l.075-16.273h-8.838l-.076 16.273zM124.025 15.385c0 1.627-.305 3.033-.914 4.364-.61 1.331-1.372 2.44-2.438 3.402-.991.962-2.21 1.702-3.657 2.22-1.372.517-2.896.739-4.496.739-1.6 0-3.124-.296-4.495-.814-1.371-.517-2.591-1.257-3.581-2.219-.991-.961-1.829-2.07-2.438-3.402a9.331 9.331 0 0 1-.838-4.364c0-1.627.305-3.033.914-4.364.61-1.332 1.371-2.441 2.438-3.403.991-.961 2.21-1.627 3.581-2.145 1.372-.517 2.895-.74 4.495-.74s3.124.297 4.496.814a11.456 11.456 0 0 1 3.657 2.22c.99.96 1.829 2.07 2.438 3.402.61 1.257.838 2.736.838 4.29zm-5.181.074a7.01 7.01 0 0 0-.457-2.515c-.305-.814-.686-1.48-1.219-2.071-.533-.592-1.219-1.11-1.981-1.405-.762-.37-1.676-.518-2.667-.518-.99 0-1.828.148-2.59.518-.762.37-1.448.813-1.981 1.405-.534.592-.915 1.331-1.219 2.07a7.01 7.01 0 0 0-.457 2.516c0 .887.152 1.701.457 2.515.304.813.685 1.479 1.219 2.07.533.593 1.143 1.11 1.981 1.406.762.37 1.676.518 2.59.518.991 0 1.829-.148 2.667-.518.762-.37 1.448-.813 1.981-1.405.533-.592.914-1.332 1.219-2.071.381-.814.457-1.702.457-2.515zM143.534 25.666l-5.486-14.35-5.867 14.276h-5.486l8.534-20.267h5.79l8.077 20.341h-5.562zM158.085 13.166c.915 0 1.753.074 2.515.222l6.019-8.063h5.714l-7.238 9.468a11.952 11.952 0 0 1 4.876 4.142c1.143 1.775 2.133 3.994 2.819 6.657h-5.714a15.588 15.588 0 0 0-1.295-3.994c-.534-1.036-1.143-1.923-1.905-2.589a7.037 7.037 0 0 0-2.514-1.405 10.313 10.313 0 0 0-3.201-.518v8.506h-5.181l.077-20.267h5.181l-.153 7.84zM197.548 15.46v.74c0 .221 0 .517-.076.739H181.32c0 .74.228 1.48.533 2.145.381.666.762 1.257 1.371 1.701.534.444 1.219.888 1.905 1.11.686.296 1.524.444 2.362.444 1.295 0 2.438-.296 3.353-.814.914-.518 1.676-1.184 2.209-1.923l3.657 2.367c-1.066 1.479-2.438 2.514-3.962 3.254-1.6.74-3.352 1.036-5.257 1.036-1.524 0-3.048-.222-4.343-.74-1.371-.518-2.514-1.257-3.581-2.145a9.587 9.587 0 0 1-2.362-3.328c-.609-1.332-.838-2.811-.838-4.438 0-1.628.305-3.033.838-4.365.534-1.33 1.372-2.44 2.362-3.402a10.027 10.027 0 0 1 3.505-2.219c1.295-.518 2.743-.74 4.343-.74s2.971.296 4.267.814c1.295.518 2.362 1.257 3.2 2.145.914.888 1.6 2.071 2.057 3.328.381 1.258.609 2.737.609 4.29zm-4.876-1.776c0-1.479-.457-2.662-1.371-3.698-.915-.962-2.21-1.48-3.962-1.48-.838 0-1.6.149-2.286.444a7.465 7.465 0 0 0-1.829 1.11c-.533.444-.914 1.035-1.219 1.627a5.994 5.994 0 0 0-.533 1.997h11.2z" fill="#393430"></path>
</svg>