<?xml version="1.0" encoding="UTF-8" ?>
<!DOCTYPE svg PUBLIC "-//W3C//DTD SVG 1.1//EN" "http://www.w3.org/Graphics/SVG/1.1/DTD/svg11.dtd">
<svg width="1698pt" height="738pt" viewBox="0 0 1698 738" version="1.1" xmlns="http://www.w3.org/2000/svg">
<g id="#d7072aff">
<path fill="#d7072a" opacity="1.00" d=" M 289.89 50.14 C 297.29 44.33 306.37 39.93 316.00 40.37 C 327.54 40.86 337.77 47.40 345.95 55.12 C 357.95 66.63 366.84 80.94 374.37 95.66 C 387.48 121.84 396.07 150.08 402.08 178.68 C 422.28 178.66 442.49 178.66 462.70 178.67 C 480.14 305.82 497.59 432.97 515.02 560.12 C 423.71 576.94 332.41 593.75 241.10 610.57 C 230.49 612.61 219.82 614.32 209.26 616.57 C 198.94 477.97 188.73 339.36 178.44 200.75 C 175.19 200.99 171.95 201.22 168.71 201.48 C 178.93 339.74 189.20 478.00 199.42 616.27 C 163.15 598.46 126.94 580.55 90.70 562.70 C 108.34 434.68 126.39 306.71 143.84 178.67 C 159.30 178.66 174.76 178.66 190.21 178.67 C 193.90 155.79 199.38 133.13 207.69 111.47 C 214.19 94.79 222.23 78.45 233.71 64.59 C 241.39 55.44 251.14 47.08 263.12 44.53 C 272.38 42.51 281.96 45.30 289.89 50.14 M 305.13 63.07 C 311.18 69.75 316.49 77.08 321.16 84.78 C 338.47 113.60 348.90 146.00 356.11 178.67 C 364.80 178.66 373.49 178.67 382.19 178.67 C 376.57 152.98 368.68 127.64 356.84 104.10 C 350.59 91.95 343.38 80.08 333.70 70.33 C 328.98 65.80 323.62 61.34 317.05 59.99 C 312.81 59.08 308.71 61.01 305.13 63.07 M 265.84 63.86 C 259.15 66.02 253.89 71.06 249.34 76.23 C 240.42 86.72 233.97 99.07 228.57 111.67 C 219.55 133.10 213.78 155.78 209.92 178.66 C 218.24 178.67 226.57 178.66 234.89 178.67 C 238.47 155.14 243.92 131.82 252.31 109.51 C 258.31 93.68 265.81 78.29 275.97 64.69 C 272.75 63.51 269.19 62.74 265.84 63.86 M 291.27 76.76 C 282.75 88.15 276.48 101.05 271.31 114.26 C 263.28 134.99 258.07 156.72 254.56 178.65 C 281.76 178.68 308.97 178.66 336.18 178.66 C 331.12 156.33 324.23 134.33 314.52 113.57 C 308.28 100.44 301.00 87.63 291.27 76.76 M 410.94 226.55 C 404.09 227.99 397.33 229.80 390.49 231.27 C 384.42 232.07 378.22 233.01 372.70 235.82 C 367.17 238.36 364.21 243.98 360.72 248.64 C 357.39 253.07 359.43 258.85 361.73 263.25 C 363.64 267.51 367.61 271.02 367.69 275.97 C 367.92 279.16 364.25 282.30 361.20 280.77 C 358.12 279.15 356.88 275.69 354.83 273.09 C 351.82 269.17 348.03 265.40 343.08 264.20 C 338.81 263.13 334.22 262.00 329.93 263.53 C 326.06 264.84 321.96 266.13 318.98 269.06 C 315.31 272.69 312.88 277.35 311.05 282.13 C 310.08 284.80 307.19 287.88 304.16 286.06 C 300.85 284.70 300.74 280.50 301.77 277.60 C 304.05 271.33 307.33 264.92 306.45 258.05 C 305.40 253.56 301.40 250.73 298.51 247.44 C 292.14 240.43 281.80 240.29 273.03 240.44 C 265.37 240.02 257.73 239.13 250.09 238.49 C 245.44 238.07 241.72 234.38 236.96 234.73 C 236.62 243.41 244.24 249.62 251.62 252.50 C 260.81 256.13 270.58 252.28 279.96 251.72 C 284.25 251.87 289.16 253.97 290.40 258.46 C 292.01 264.68 289.33 270.97 286.20 276.25 C 283.62 280.63 282.15 286.90 286.09 290.96 C 289.35 295.23 293.30 301.48 289.68 306.67 C 288.30 309.53 284.64 309.20 282.06 310.08 C 278.54 310.83 276.09 313.79 274.51 316.84 C 316.12 312.62 357.72 308.29 399.30 303.77 C 397.87 302.18 396.37 300.52 394.32 299.74 C 391.14 298.31 387.58 299.32 384.28 298.61 C 380.38 296.69 379.44 291.77 380.98 287.98 C 381.91 283.15 386.84 279.41 385.45 274.18 C 384.30 268.83 379.47 265.53 377.18 260.76 C 375.31 257.21 373.83 252.74 375.82 248.92 C 378.31 244.28 384.05 242.65 388.99 242.92 C 397.40 242.57 406.55 243.60 413.99 238.82 C 420.61 234.95 427.29 227.61 424.45 219.34 C 420.27 222.26 416.05 225.51 410.94 226.55 M 405.79 249.73 C 400.50 250.22 395.17 249.88 389.86 249.74 C 388.35 252.87 389.79 256.19 390.88 259.19 C 396.24 258.81 401.68 258.57 406.89 257.14 C 410.56 256.16 413.43 253.18 415.01 249.82 C 415.18 247.84 414.88 245.87 414.79 243.90 C 412.49 246.71 409.52 249.25 405.79 249.73 M 250.34 257.53 C 250.82 260.68 250.63 264.40 253.40 266.60 C 259.34 272.48 268.43 269.70 275.79 269.39 C 276.73 266.33 278.24 261.80 275.17 259.59 C 270.11 260.36 265.15 261.79 260.03 262.14 C 256.24 262.30 252.90 260.12 250.34 257.53 M 396.01 263.58 C 390.55 263.00 390.64 270.87 394.08 273.28 C 398.38 273.83 402.99 273.07 406.73 270.81 C 410.32 268.55 411.49 264.19 412.00 260.24 C 407.01 262.61 401.59 264.27 396.01 263.58 M 255.53 274.27 C 256.49 277.87 257.91 281.81 261.31 283.81 C 265.42 286.11 270.37 285.56 274.80 284.67 C 276.56 282.42 277.39 279.53 276.02 276.85 C 275.54 274.05 272.20 274.51 270.19 275.10 C 265.34 276.58 260.29 275.43 255.53 274.27 M 392.52 279.05 C 391.11 282.95 390.10 287.07 391.06 291.21 C 398.15 290.34 407.43 286.09 406.08 277.42 C 401.73 278.91 397.12 279.95 392.52 279.05 M 263.86 291.00 C 264.17 293.84 264.66 297.02 267.05 298.91 C 270.88 301.69 275.77 302.43 280.40 302.29 C 281.20 297.91 279.57 293.79 277.35 290.11 C 273.04 291.81 268.36 291.79 263.86 291.00 M 328.11 317.29 C 329.86 338.47 331.62 359.66 333.38 380.84 C 328.31 379.27 323.22 377.75 318.04 376.55 C 313.49 375.56 309.50 372.96 305.82 370.22 C 300.44 366.10 295.90 359.99 295.90 352.94 C 295.93 349.02 296.72 344.54 299.98 341.96 C 303.46 339.39 308.38 340.04 312.05 341.87 C 315.23 344.30 315.37 348.60 314.25 352.14 C 317.46 351.92 321.27 351.03 322.66 347.73 C 325.46 340.36 322.05 330.51 314.33 327.71 C 308.54 325.59 302.07 326.40 296.34 328.29 C 290.01 330.43 285.36 336.05 283.48 342.34 C 280.15 353.44 281.31 366.23 288.21 375.78 C 295.49 386.58 308.00 391.75 319.49 396.79 C 329.11 389.78 338.32 382.09 348.96 376.61 C 348.14 356.20 346.90 335.80 345.90 315.39 C 339.97 316.02 334.04 316.66 328.11 317.29 M 360.12 323.17 C 353.94 327.47 352.02 336.36 354.92 343.11 C 356.57 346.69 360.99 346.94 364.36 346.14 C 363.43 343.92 362.40 341.43 363.36 339.03 C 364.54 334.44 369.86 332.82 374.04 332.49 C 380.27 332.60 382.74 339.78 382.71 345.02 C 382.28 355.40 374.37 363.63 366.39 369.38 C 349.21 378.09 332.99 388.81 318.30 401.29 C 306.95 410.96 299.40 425.08 298.16 439.97 C 297.03 452.99 302.88 465.97 312.34 474.77 C 318.17 479.48 325.16 482.46 332.11 485.13 C 338.77 478.74 345.59 472.52 353.02 467.01 C 352.20 447.76 351.46 428.50 350.62 409.24 C 357.37 412.36 363.92 416.55 368.29 422.70 C 374.65 432.32 374.69 445.69 368.35 455.35 C 363.11 464.03 353.69 468.61 346.46 475.35 C 338.98 482.19 330.55 488.43 325.50 497.42 C 322.10 503.28 319.83 510.21 320.96 517.03 C 322.21 524.66 328.06 530.90 334.91 534.07 C 338.31 535.09 341.91 535.00 345.42 535.15 C 345.73 539.00 346.06 542.86 346.41 546.71 C 349.56 546.18 352.71 545.63 355.86 545.08 C 355.79 541.16 355.68 537.25 355.58 533.34 C 360.29 531.42 365.69 530.18 369.07 526.08 C 375.10 519.80 379.51 510.93 377.55 502.05 C 375.80 493.69 369.30 487.49 362.70 482.60 C 355.89 487.49 349.03 492.31 342.62 497.72 C 343.43 507.90 344.24 518.07 345.02 528.25 C 340.78 527.49 336.36 525.97 333.59 522.49 C 330.03 518.06 330.14 511.56 332.76 506.70 C 336.25 500.19 341.73 494.98 347.66 490.70 C 354.59 485.18 362.03 480.38 369.44 475.54 C 383.48 465.95 392.90 449.17 392.13 432.00 C 390.96 415.56 379.77 400.62 364.91 393.83 C 354.57 399.53 345.36 406.96 336.06 414.17 C 337.65 433.23 339.21 452.29 340.80 471.35 C 333.00 469.24 325.39 465.02 321.21 457.86 C 315.35 447.86 316.44 434.55 322.81 425.04 C 328.91 415.79 338.28 409.48 347.02 402.95 C 357.53 395.04 369.10 388.58 379.04 379.92 C 385.75 374.56 391.41 367.69 394.47 359.61 C 398.05 350.52 397.62 340.05 393.91 331.08 C 391.43 324.95 385.79 320.02 379.09 319.30 C 372.63 318.64 365.56 319.32 360.12 323.17 Z" />
<path fill="#d7072a" opacity="1.00" d=" M 354.29 492.75 C 360.58 496.09 367.57 501.11 367.99 508.92 C 368.60 517.13 361.79 523.22 355.23 526.84 C 354.87 515.47 354.58 504.11 354.29 492.75 Z" />
</g>
<g id="#000000ff">
<path fill="#000000" opacity="1.00" d=" M 981.18 186.22 C 997.59 176.61 1017.40 175.58 1035.93 176.94 C 1051.42 178.25 1067.60 182.75 1078.88 194.02 C 1084.74 199.86 1088.47 207.77 1089.16 216.02 C 1089.96 225.11 1088.51 234.77 1083.17 242.36 C 1079.57 247.64 1074.24 251.47 1068.57 254.26 C 1077.54 256.77 1086.44 261.36 1091.78 269.27 C 1098.46 279.09 1098.96 291.82 1096.71 303.14 C 1093.56 318.81 1081.84 331.76 1067.64 338.53 C 1053.20 345.44 1036.83 346.92 1021.03 346.33 C 1004.99 345.67 988.40 341.59 975.78 331.21 C 965.35 322.78 958.60 310.61 954.96 297.86 C 970.96 296.65 986.97 295.44 1002.99 294.27 C 1004.51 300.64 1008.37 306.82 1014.67 309.34 C 1022.03 312.19 1030.74 312.29 1037.97 308.94 C 1050.13 302.78 1050.59 282.96 1039.17 275.77 C 1030.05 269.39 1018.43 271.55 1008.01 271.16 C 1007.99 261.33 1007.99 251.50 1008.01 241.67 C 1015.43 241.36 1023.40 242.81 1030.29 239.28 C 1038.74 235.28 1042.00 223.94 1038.24 215.68 C 1036.14 211.64 1031.49 209.85 1027.20 209.39 C 1020.84 208.71 1013.69 209.29 1008.66 213.65 C 1005.45 216.38 1003.92 220.46 1002.99 224.46 C 987.83 222.82 972.69 220.97 957.54 219.23 C 960.86 205.76 969.02 193.22 981.18 186.22 Z" />
<path fill="#000000" opacity="1.00" d=" M 1490.36 193.40 C 1505.32 181.20 1525.05 176.69 1544.00 176.46 C 1560.91 176.27 1578.69 178.45 1593.25 187.72 C 1607.40 196.79 1616.46 211.94 1621.57 227.65 C 1606.60 230.96 1591.64 234.31 1576.68 237.62 C 1574.82 231.70 1572.15 225.80 1567.27 221.76 C 1558.97 214.20 1546.45 212.81 1536.09 216.37 C 1526.86 219.54 1519.91 227.73 1517.14 236.95 C 1514.25 246.32 1513.98 256.26 1514.25 266.00 C 1514.61 275.05 1515.44 284.34 1519.15 292.72 C 1522.76 300.96 1531.00 306.67 1539.84 307.83 C 1548.77 309.02 1558.83 307.99 1565.89 301.86 C 1573.12 295.26 1576.41 285.60 1578.58 276.31 C 1593.43 280.82 1608.30 285.27 1623.15 289.80 C 1619.10 307.36 1609.96 324.49 1594.70 334.71 C 1579.44 345.32 1560.09 347.01 1542.05 346.34 C 1524.81 345.64 1506.57 342.42 1492.83 331.24 C 1479.49 320.28 1469.79 304.85 1466.03 287.96 C 1462.33 271.24 1462.26 253.73 1465.40 236.92 C 1468.55 220.19 1476.87 204.08 1490.36 193.40 Z" />
<path fill="#000000" opacity="1.00" d=" M 603.01 179.25 C 649.14 179.26 695.27 179.25 741.41 179.25 C 741.43 190.38 741.40 201.51 741.42 212.65 C 712.20 212.70 682.98 212.64 653.76 212.67 C 653.73 222.63 653.76 232.59 653.74 242.55 C 674.10 242.96 694.84 241.12 714.79 246.22 C 726.19 249.09 737.59 254.50 744.80 264.13 C 752.96 274.83 755.00 288.93 754.05 302.04 C 753.26 312.95 748.10 323.61 739.39 330.36 C 726.38 340.63 709.20 343.28 693.07 343.64 C 663.05 343.71 633.03 343.64 603.01 343.67 C 602.99 288.86 602.99 234.05 603.01 179.25 M 653.76 275.93 C 653.74 286.70 653.74 297.47 653.76 308.24 C 663.48 308.21 673.21 308.35 682.94 308.18 C 689.59 307.82 697.27 306.17 701.15 300.19 C 704.78 294.14 704.65 284.85 698.54 280.41 C 693.50 276.78 687.04 276.16 681.02 275.97 C 671.93 275.85 662.84 275.94 653.76 275.93 Z" />
<path fill="#000000" opacity="1.00" d=" M 777.76 179.25 C 793.73 179.26 809.70 179.24 825.67 179.26 C 825.67 209.52 825.65 239.79 825.68 270.06 C 846.27 239.81 866.84 209.53 887.41 179.26 C 903.27 179.23 919.13 179.27 934.99 179.25 C 935.01 234.05 935.01 288.86 934.99 343.67 C 919.05 343.66 903.11 343.67 887.17 343.67 C 887.13 313.67 887.22 283.67 887.13 253.68 C 866.59 283.62 846.24 313.70 825.74 343.68 C 809.75 343.67 793.77 343.65 777.79 343.69 C 777.70 288.87 777.76 234.06 777.76 179.25 Z" />
<path fill="#000000" opacity="1.00" d=" M 1119.62 179.34 C 1136.60 179.14 1153.60 179.30 1170.58 179.26 C 1170.59 198.42 1170.56 217.59 1170.60 236.75 C 1189.04 236.74 1207.47 236.75 1225.91 236.75 C 1225.93 217.58 1225.90 198.42 1225.93 179.25 C 1242.94 179.24 1259.97 179.26 1276.99 179.25 C 1277.01 234.05 1277.01 288.86 1276.99 343.67 C 1259.96 343.66 1242.95 343.67 1225.93 343.66 C 1225.90 321.50 1225.93 299.33 1225.91 277.17 C 1207.47 277.17 1189.03 277.17 1170.59 277.17 C 1170.57 299.33 1170.59 321.49 1170.58 343.66 C 1153.59 343.62 1136.60 343.78 1119.62 343.58 C 1119.70 288.83 1119.69 234.08 1119.62 179.34 Z" />
<path fill="#000000" opacity="1.00" d=" M 1306.93 179.25 C 1352.31 179.25 1397.69 179.25 1443.07 179.25 C 1443.09 190.97 1443.08 202.69 1443.08 214.41 C 1414.70 214.43 1386.33 214.41 1357.95 214.41 C 1357.87 223.08 1357.93 231.74 1357.92 240.41 C 1384.25 240.42 1410.58 240.42 1436.90 240.41 C 1436.93 251.63 1436.91 262.85 1436.91 274.08 C 1410.58 274.09 1384.25 274.07 1357.92 274.09 C 1357.91 284.83 1357.91 295.58 1357.93 306.33 C 1387.12 306.36 1416.32 306.29 1445.51 306.36 C 1445.49 318.79 1445.49 331.21 1445.51 343.64 C 1399.32 343.70 1353.12 343.65 1306.93 343.66 C 1306.90 288.86 1306.91 234.06 1306.93 179.25 Z" />
<path fill="#000000" opacity="1.00" d=" M 1260.53 396.77 C 1272.59 395.00 1284.82 394.79 1296.99 394.75 C 1297.00 406.36 1297.01 417.97 1296.98 429.58 C 1288.76 429.49 1279.34 429.96 1273.22 436.22 C 1265.55 443.68 1264.44 454.96 1258.62 463.59 C 1255.21 469.19 1249.65 473.11 1243.67 475.56 C 1252.11 478.52 1259.64 483.90 1265.16 490.95 C 1274.66 502.91 1280.64 517.10 1287.52 530.63 C 1292.47 540.54 1297.36 550.48 1302.32 560.40 C 1283.21 560.43 1264.10 560.41 1245.00 560.41 C 1237.46 544.42 1230.14 528.33 1222.49 512.39 C 1220.05 507.73 1217.77 502.84 1214.11 499.01 C 1211.30 496.27 1207.29 495.52 1203.53 495.29 C 1203.46 517.00 1203.53 538.70 1203.49 560.41 C 1186.58 560.41 1169.67 560.42 1152.76 560.41 C 1152.74 505.61 1152.75 450.81 1152.75 396.01 C 1169.67 396.01 1186.59 395.98 1203.51 396.02 C 1203.50 417.08 1203.48 438.14 1203.52 459.21 C 1207.95 458.80 1212.50 456.87 1214.82 452.87 C 1220.94 442.56 1224.17 430.90 1229.09 420.03 C 1231.73 414.46 1234.65 408.74 1239.46 404.72 C 1245.46 399.96 1253.10 397.98 1260.53 396.77 Z" />
<path fill="#000000" opacity="1.00" d=" M 602.16 396.01 C 624.46 395.99 646.76 396.00 669.06 396.00 C 677.65 429.24 686.17 462.49 694.76 495.73 C 703.32 462.50 711.79 429.26 720.28 396.02 C 742.54 395.98 764.81 396.00 787.08 396.01 C 787.08 450.81 787.09 505.61 787.08 560.41 C 773.19 560.42 759.31 560.41 745.42 560.41 C 745.41 518.84 745.40 477.27 745.43 435.69 C 734.68 477.24 724.17 518.86 713.47 560.42 C 700.91 560.40 688.35 560.42 675.79 560.41 C 665.10 518.99 654.77 477.46 643.92 436.08 C 643.72 477.52 643.89 518.97 643.84 560.41 C 629.94 560.42 616.05 560.42 602.17 560.41 C 602.16 505.61 602.17 450.81 602.16 396.01 Z" />
<path fill="#000000" opacity="1.00" d=" M 861.06 396.00 C 879.56 396.04 898.08 395.93 916.59 396.05 C 937.07 450.87 957.76 505.61 978.28 560.40 C 960.53 560.43 942.77 560.42 925.02 560.41 C 922.26 551.36 919.53 542.30 916.78 533.25 C 897.60 533.24 878.42 533.26 859.23 533.25 C 856.54 542.30 853.90 551.36 851.19 560.41 C 833.88 560.42 816.57 560.42 799.25 560.41 C 819.84 505.61 840.42 450.79 861.06 396.00 M 870.28 497.66 C 882.25 497.68 894.23 497.67 906.22 497.66 C 900.22 478.05 894.19 458.44 888.16 438.84 C 882.17 458.44 876.24 478.05 870.28 497.66 Z" />
<path fill="#000000" opacity="1.00" d=" M 990.41 396.02 C 1016.59 395.98 1042.77 396.01 1068.96 396.00 C 1083.08 395.67 1098.13 396.68 1110.36 404.50 C 1121.09 411.22 1127.54 423.27 1129.19 435.62 C 1131.39 451.64 1129.23 469.57 1118.16 482.11 C 1108.29 493.72 1092.67 498.13 1077.98 499.11 C 1065.83 499.75 1053.66 499.25 1041.50 499.43 C 1041.50 519.76 1041.52 540.09 1041.49 560.42 C 1024.47 560.42 1007.45 560.41 990.43 560.42 C 990.39 505.62 990.44 450.82 990.41 396.02 M 1041.51 429.51 C 1041.50 441.67 1041.50 453.83 1041.51 466.00 C 1048.72 465.84 1055.98 466.45 1063.15 465.41 C 1067.96 464.68 1072.97 463.06 1076.24 459.24 C 1083.77 451.13 1080.84 435.75 1070.35 431.65 C 1061.13 428.24 1051.10 429.90 1041.51 429.51 Z" />
<path fill="#000000" opacity="1.00" d=" M 1316.59 396.00 C 1361.98 396.00 1407.37 395.98 1452.76 396.01 C 1452.74 407.73 1452.75 419.44 1452.75 431.15 C 1424.33 431.19 1395.92 431.16 1367.51 431.17 C 1367.49 439.83 1367.49 448.49 1367.51 457.16 C 1393.87 457.18 1420.23 457.14 1446.59 457.18 C 1446.58 468.36 1446.58 479.55 1446.59 490.74 C 1420.23 490.76 1393.87 490.74 1367.51 490.75 C 1367.49 501.53 1367.49 512.30 1367.51 523.08 C 1396.73 523.09 1425.94 523.07 1455.16 523.09 C 1455.17 535.53 1455.17 547.97 1455.16 560.41 C 1408.97 560.42 1362.78 560.42 1316.59 560.41 C 1316.58 505.61 1316.58 450.81 1316.59 396.00 Z" />
<path fill="#000000" opacity="1.00" d=" M 1467.25 396.01 C 1518.72 395.99 1570.20 395.99 1621.67 396.01 C 1621.65 409.56 1621.67 423.11 1621.66 436.66 C 1604.39 436.68 1587.11 436.65 1569.84 436.67 C 1569.82 477.92 1569.84 519.16 1569.84 560.41 C 1552.89 560.42 1535.95 560.41 1519.00 560.41 C 1518.99 519.16 1519.01 477.92 1518.99 436.67 C 1501.75 436.66 1484.50 436.67 1467.26 436.67 C 1467.24 423.11 1467.26 409.56 1467.25 396.01 Z" />
</g>
<g id="#ffffffff">
<path fill="#ffffff" opacity="1.00" d=" M 168.71 201.48 C 171.95 201.22 175.19 200.99 178.44 200.75 C 188.73 339.36 198.94 477.97 209.26 616.57 C 206.02 617.02 202.75 617.13 199.50 617.40 C 199.48 617.11 199.44 616.55 199.42 616.27 C 189.20 478.00 178.93 339.74 168.71 201.48 Z" />
<path fill="#ffffff" opacity="1.00" d=" M 410.94 226.55 C 416.05 225.51 420.27 222.26 424.45 219.34 C 427.29 227.61 420.61 234.95 413.99 238.82 C 406.55 243.60 397.40 242.57 388.99 242.92 C 384.05 242.65 378.31 244.28 375.82 248.92 C 373.83 252.74 375.31 257.21 377.18 260.76 C 379.47 265.53 384.30 268.83 385.45 274.18 C 386.84 279.41 381.91 283.15 380.98 287.98 C 379.44 291.77 380.38 296.69 384.28 298.61 C 387.58 299.32 391.14 298.31 394.32 299.74 C 396.37 300.52 397.87 302.18 399.30 303.77 C 357.72 308.29 316.12 312.62 274.51 316.84 C 276.09 313.79 278.54 310.83 282.06 310.08 C 284.64 309.20 288.30 309.53 289.68 306.67 C 293.30 301.48 289.35 295.23 286.09 290.96 C 282.15 286.90 283.62 280.63 286.20 276.25 C 289.33 270.97 292.01 264.68 290.40 258.46 C 289.16 253.97 284.25 251.87 279.96 251.72 C 270.58 252.28 260.81 256.13 251.62 252.50 C 244.24 249.62 236.62 243.41 236.96 234.73 C 241.72 234.38 245.44 238.07 250.09 238.49 C 257.73 239.13 265.37 240.02 273.03 240.44 C 281.80 240.29 292.14 240.43 298.51 247.44 C 301.40 250.73 305.40 253.56 306.45 258.05 C 307.33 264.92 304.05 271.33 301.77 277.60 C 300.74 280.50 300.85 284.70 304.16 286.06 C 307.19 287.88 310.08 284.80 311.05 282.13 C 312.88 277.35 315.31 272.69 318.98 269.06 C 321.96 266.13 326.06 264.84 329.93 263.53 C 334.22 262.00 338.81 263.13 343.08 264.20 C 348.03 265.40 351.82 269.17 354.83 273.09 C 356.88 275.69 358.12 279.15 361.20 280.77 C 364.25 282.30 367.92 279.16 367.69 275.97 C 367.61 271.02 363.64 267.51 361.73 263.25 C 359.43 258.85 357.39 253.07 360.72 248.64 C 364.21 243.98 367.17 238.36 372.70 235.82 C 378.22 233.01 384.42 232.07 390.49 231.27 C 397.33 229.80 404.09 227.99 410.94 226.55 Z" />
<path fill="#ffffff" opacity="1.00" d=" M 405.79 249.73 C 409.52 249.25 412.49 246.71 414.79 243.90 C 414.88 245.87 415.18 247.84 415.01 249.82 C 413.43 253.18 410.56 256.16 406.89 257.14 C 401.68 258.57 396.24 258.81 390.88 259.19 C 389.79 256.19 388.35 252.87 389.86 249.74 C 395.17 249.88 400.50 250.22 405.79 249.73 Z" />
<path fill="#ffffff" opacity="1.00" d=" M 250.34 257.53 C 252.90 260.12 256.24 262.30 260.03 262.14 C 265.15 261.79 270.11 260.36 275.17 259.59 C 278.24 261.80 276.73 266.33 275.79 269.39 C 268.43 269.70 259.34 272.48 253.40 266.60 C 250.63 264.40 250.82 260.68 250.34 257.53 Z" />
<path fill="#ffffff" opacity="1.00" d=" M 396.01 263.58 C 401.59 264.27 407.01 262.61 412.00 260.24 C 411.49 264.19 410.32 268.55 406.73 270.81 C 402.99 273.07 398.38 273.83 394.08 273.28 C 390.64 270.87 390.55 263.00 396.01 263.58 Z" />
<path fill="#ffffff" opacity="1.00" d=" M 255.53 274.27 C 260.29 275.43 265.34 276.58 270.19 275.10 C 272.20 274.51 275.54 274.05 276.02 276.85 C 277.39 279.53 276.56 282.42 274.80 284.67 C 270.37 285.56 265.42 286.11 261.31 283.81 C 257.91 281.81 256.49 277.87 255.53 274.27 Z" />
<path fill="#ffffff" opacity="1.00" d=" M 392.52 279.05 C 397.12 279.95 401.73 278.91 406.08 277.42 C 407.43 286.09 398.15 290.34 391.06 291.21 C 390.10 287.07 391.11 282.95 392.52 279.05 Z" />
<path fill="#ffffff" opacity="1.00" d=" M 263.86 291.00 C 268.36 291.79 273.04 291.81 277.35 290.11 C 279.57 293.79 281.20 297.91 280.40 302.29 C 275.77 302.43 270.88 301.69 267.05 298.91 C 264.66 297.02 264.17 293.84 263.86 291.00 Z" />
<path fill="#ffffff" opacity="1.00" d=" M 328.11 317.29 C 334.04 316.66 339.97 316.02 345.90 315.39 C 346.90 335.80 348.14 356.20 348.96 376.61 C 338.32 382.09 329.11 389.78 319.49 396.79 C 308.00 391.75 295.49 386.58 288.21 375.78 C 281.31 366.23 280.15 353.44 283.48 342.34 C 285.36 336.05 290.01 330.43 296.34 328.29 C 302.07 326.40 308.54 325.59 314.33 327.71 C 322.05 330.51 325.46 340.36 322.66 347.73 C 321.27 351.03 317.46 351.92 314.25 352.14 C 315.37 348.60 315.23 344.30 312.05 341.87 C 308.38 340.04 303.46 339.39 299.98 341.96 C 296.72 344.54 295.93 349.02 295.90 352.94 C 295.90 359.99 300.44 366.10 305.82 370.22 C 309.50 372.96 313.49 375.56 318.04 376.55 C 323.22 377.75 328.31 379.27 333.38 380.84 C 331.62 359.66 329.86 338.47 328.11 317.29 Z" />
<path fill="#ffffff" opacity="1.00" d=" M 360.12 323.17 C 365.56 319.32 372.63 318.64 379.09 319.30 C 385.79 320.02 391.43 324.95 393.91 331.08 C 397.62 340.05 398.05 350.52 394.47 359.61 C 391.41 367.69 385.75 374.56 379.04 379.92 C 369.10 388.58 357.53 395.04 347.02 402.95 C 338.28 409.48 328.91 415.79 322.81 425.04 C 316.44 434.55 315.35 447.86 321.21 457.86 C 325.39 465.02 333.00 469.24 340.80 471.35 C 339.21 452.29 337.65 433.23 336.06 414.17 C 345.36 406.96 354.57 399.53 364.91 393.83 C 379.77 400.62 390.96 415.56 392.13 432.00 C 392.90 449.17 383.48 465.95 369.44 475.54 C 362.03 480.38 354.59 485.18 347.66 490.70 C 341.73 494.98 336.25 500.19 332.76 506.70 C 330.14 511.56 330.03 518.06 333.59 522.49 C 336.36 525.97 340.78 527.49 345.02 528.25 C 344.24 518.07 343.43 507.90 342.62 497.72 C 349.03 492.31 355.89 487.49 362.70 482.60 C 369.30 487.49 375.80 493.69 377.55 502.05 C 379.51 510.93 375.10 519.80 369.07 526.08 C 365.69 530.18 360.29 531.42 355.58 533.34 C 355.68 537.25 355.79 541.16 355.86 545.08 C 352.71 545.63 349.56 546.18 346.41 546.71 C 346.06 542.86 345.73 539.00 345.42 535.15 C 341.91 535.00 338.31 535.09 334.91 534.07 C 328.06 530.90 322.21 524.66 320.96 517.03 C 319.83 510.21 322.10 503.28 325.50 497.42 C 330.55 488.43 338.98 482.19 346.46 475.35 C 353.69 468.61 363.11 464.03 368.35 455.35 C 374.69 445.69 374.65 432.32 368.29 422.70 C 363.92 416.55 357.37 412.36 350.62 409.24 C 351.46 428.50 352.20 447.76 353.02 467.01 C 345.59 472.52 338.77 478.74 332.11 485.13 C 325.16 482.46 318.17 479.48 312.34 474.77 C 302.88 465.97 297.03 452.99 298.16 439.97 C 299.40 425.08 306.95 410.96 318.30 401.29 C 332.99 388.81 349.21 378.09 366.39 369.38 C 374.37 363.63 382.28 355.40 382.71 345.02 C 382.74 339.78 380.27 332.60 374.04 332.49 C 369.86 332.82 364.54 334.44 363.36 339.03 C 362.40 341.43 363.43 343.92 364.36 346.14 C 360.99 346.94 356.57 346.69 354.92 343.11 C 352.02 336.36 353.94 327.47 360.12 323.17 M 354.29 492.75 C 354.58 504.11 354.87 515.47 355.23 526.84 C 361.79 523.22 368.60 517.13 367.99 508.92 C 367.57 501.11 360.58 496.09 354.29 492.75 Z" />
</g>
</svg>
