<svg id="Layer_1" data-name="Layer 1" xmlns="http://www.w3.org/2000/svg" xmlns:xlink="http://www.w3.org/1999/xlink" viewBox="0 0 253.12 59"><defs><style>.cls-1{fill:url(#New_Gradient_Swatch);}.cls-2{fill:#29363d;}</style><linearGradient id="New_Gradient_Swatch" x1="29.5" x2="29.5" y2="59" gradientUnits="userSpaceOnUse"><stop offset="0" stop-color="#f80"/><stop offset="0.18" stop-color="#ff7f01"/><stop offset="0.48" stop-color="#ff6504"/><stop offset="0.85" stop-color="#ff3c0a"/><stop offset="0.99" stop-color="#ff2b0c"/></linearGradient></defs><title>logo-metallportal</title><path class="cls-1" d="M4.57,38.27,3,36.67A10.14,10.14,0,0,1,3,22.33l1.6-1.6ZM56,22.33,36.67,3A10.14,10.14,0,0,0,22.33,3l-7,7L25.41,21.69,37,8.3l1.51,1.31L25.41,24.74,12.59,10h-6V47.42H17.22V31l8.19,7.74,8.31-7.86V47.42H44.37V33.2h2V46.33L56,36.67A10.14,10.14,0,0,0,56,22.33ZM31.72,49.42V35.52l-6.31,6-6.19-5.85V49.42h-3.5L22.33,56a10.14,10.14,0,0,0,14.34,0l6.61-6.61Z"/><path class="cls-2" d="M93.7,11a1.33,1.33,0,0,1,1.48,1.49L96,32.37H92.33l-.74-18.32H91L87,28.4a1.46,1.46,0,0,1-1.58,1.27H82.69a1.52,1.52,0,0,1-1.64-1.27l-4-14.35h-.59l-.68,18.32H72.09l.84-19.9A1.35,1.35,0,0,1,74.41,11h3.88a1.48,1.48,0,0,1,1.55,1.27L83.12,24a13.44,13.44,0,0,1,.36,1.49c.09.49.2,1,.33,1.49h.46c.13-.5.24-1,.34-1.49s.22-1,.34-1.52l3.29-11.69A1.47,1.47,0,0,1,89.82,11Z"/><path class="cls-2" d="M106.9,16.78q3.69,0,5.3,1.28a4.68,4.68,0,0,1,1.65,3.8,4.34,4.34,0,0,1-1,3.15,4.42,4.42,0,0,1-3.33,1.07h-8.68V23.75h7.65c.71,0,1.16-.18,1.35-.55a2.89,2.89,0,0,0,.3-1.37,2.12,2.12,0,0,0-.73-1.77,4.27,4.27,0,0,0-2.37-.49,5.16,5.16,0,0,0-2.27.4,2.32,2.32,0,0,0-1.13,1.46,10.75,10.75,0,0,0-.32,3,10.2,10.2,0,0,0,.4,3.25,2.52,2.52,0,0,0,1.33,1.57,6.12,6.12,0,0,0,2.48.42c.77,0,1.65,0,2.65-.1s2-.14,2.9-.25l.37,2.39a10,10,0,0,1-1.92.56q-1.08.21-2.25.33c-.77.07-1.5.1-2.18.1a10.3,10.3,0,0,1-4.48-.82,5,5,0,0,1-2.45-2.59,11.51,11.51,0,0,1-.76-4.55,12.13,12.13,0,0,1,.76-4.76,4.67,4.67,0,0,1,2.42-2.5A10.63,10.63,0,0,1,106.9,16.78Z"/><path class="cls-2" d="M126.77,17.15v2.6h-11V17.31l3-.16Zm-4.52-4.34v15a1.9,1.9,0,0,0,.41,1.37,2.06,2.06,0,0,0,1.45.4h2.1l.41,2.64a11.49,11.49,0,0,1-1.27.27c-.5.09-1,.14-1.46.18s-.88,0-1.21,0a4.2,4.2,0,0,1-3.08-1.07,4.08,4.08,0,0,1-1.11-3.08V12.81Z"/><path class="cls-2" d="M141.22,23l0,2.32h-7a1.8,1.8,0,0,0-1.33.5,1.86,1.86,0,0,0-.4,1.27v.84a1.87,1.87,0,0,0,.49,1.41,2.16,2.16,0,0,0,1.55.48,5.84,5.84,0,0,0,1.86-.34A9.26,9.26,0,0,0,140.23,27V28.9a9.57,9.57,0,0,1-.9,1.1,11,11,0,0,1-1.45,1.26,7.81,7.81,0,0,1-1.95,1,7,7,0,0,1-2.43.4,6,6,0,0,1-2.45-.48,3.86,3.86,0,0,1-1.71-1.43,4.18,4.18,0,0,1-.62-2.34V26.82a3.45,3.45,0,0,1,1.2-2.8,4.9,4.9,0,0,1,3.27-1Zm-4-6.23a8.62,8.62,0,0,1,3.08.48,3.6,3.6,0,0,1,1.91,1.63,6.47,6.47,0,0,1,.65,3.16V32.37h-3l-.52-3.28-.28-.44V22a2.36,2.36,0,0,0-.56-1.75,3.08,3.08,0,0,0-2.14-.55c-.78,0-1.77,0-3,.1s-2.38.14-3.58.24l-.34-2.57c.72-.14,1.54-.27,2.45-.37s1.83-.19,2.76-.25S136.44,16.78,137.19,16.78Z"/><path class="cls-2" d="M150.7,10.67l0,17.11a1.7,1.7,0,0,0,.5,1.32,2,2,0,0,0,1.42.45h1.34l.43,2.64a4.76,4.76,0,0,1-.94.27,10.29,10.29,0,0,1-1.24.18c-.43,0-.8,0-1.1,0a4.27,4.27,0,0,1-3-1A3.77,3.77,0,0,1,147,28.71v-18Z"/><path class="cls-2" d="M160.47,10.67l0,17.11a1.69,1.69,0,0,0,.49,1.32,2.06,2.06,0,0,0,1.43.45h1.33l.44,2.64a4.89,4.89,0,0,1-.95.27,10,10,0,0,1-1.24.18c-.42,0-.79,0-1.1,0a4.3,4.3,0,0,1-3-1,3.8,3.8,0,0,1-1.11-2.95v-18Z"/><path class="cls-2" d="M174.57,10.7a12.9,12.9,0,0,1,4.44.61,4,4,0,0,1,2.31,2.07,10.14,10.14,0,0,1,.69,4.17,10.63,10.63,0,0,1-.66,4.19,3.88,3.88,0,0,1-2.2,2.08,11.77,11.77,0,0,1-4.08.58c-.93,0-1.83,0-2.68-.09s-1.66-.14-2.39-.25-1.36-.21-1.88-.32a7.84,7.84,0,0,1-1.08-.3l.09-2.07h7.38a6.68,6.68,0,0,0,2.16-.34,2,2,0,0,0,1.11-1.14,6.46,6.46,0,0,0,.33-2.34,6.53,6.53,0,0,0-.33-2.34,2,2,0,0,0-1.11-1.14,5.76,5.76,0,0,0-2.16-.33q-2.73,0-4.68,0t-2.67.09L166.73,11q1.25-.12,2.34-.18c.73-.05,1.53-.07,2.39-.08Zm-4,.28V32.37h-3.87V11Z"/><path class="cls-2" d="M192,16.78a10.75,10.75,0,0,1,4.45.77,4.67,4.67,0,0,1,2.39,2.55,12.54,12.54,0,0,1,.73,4.68,12.46,12.46,0,0,1-.73,4.66A4.69,4.69,0,0,1,196.44,32a10.4,10.4,0,0,1-4.45.79,10.18,10.18,0,0,1-4.38-.79,4.71,4.71,0,0,1-2.4-2.54,12,12,0,0,1-.75-4.66,12.11,12.11,0,0,1,.75-4.68,4.69,4.69,0,0,1,2.4-2.55A10.52,10.52,0,0,1,192,16.78Zm0,2.85a4.35,4.35,0,0,0-2.15.45,2.55,2.55,0,0,0-1.13,1.57,11.06,11.06,0,0,0-.34,3.13,11.16,11.16,0,0,0,.34,3.13,2.5,2.5,0,0,0,1.13,1.55,4.48,4.48,0,0,0,2.15.43,4.72,4.72,0,0,0,2.21-.43,2.46,2.46,0,0,0,1.13-1.55,12.1,12.1,0,0,0,.32-3.13,12,12,0,0,0-.32-3.13,2.51,2.51,0,0,0-1.13-1.57A4.58,4.58,0,0,0,192,19.63Z"/><path class="cls-2" d="M206,17.15l.49,3,.34.43V32.37h-3.75V17.15Zm7.44-.37-.38,3.47H212a8.15,8.15,0,0,0-2.45.4c-.83.27-1.86.68-3.1,1.21l-.25-2.2a14,14,0,0,1,3.29-2.12,7.71,7.71,0,0,1,3.22-.76Z"/><path class="cls-2" d="M225.54,17.15v2.6h-11V17.31l3-.16ZM221,12.81v15a1.86,1.86,0,0,0,.42,1.37,2,2,0,0,0,1.44.4H225l.4,2.64a11.49,11.49,0,0,1-1.27.27c-.5.09-1,.14-1.46.18s-.88,0-1.21,0a4.2,4.2,0,0,1-3.08-1.07,4.07,4.07,0,0,1-1.1-3.08V12.81Z"/><path class="cls-2" d="M240,23l0,2.32h-7a1.8,1.8,0,0,0-1.33.5,1.86,1.86,0,0,0-.4,1.27v.84a1.87,1.87,0,0,0,.49,1.41,2.16,2.16,0,0,0,1.55.48,5.84,5.84,0,0,0,1.86-.34A9.26,9.26,0,0,0,239,27V28.9a9.57,9.57,0,0,1-.9,1.1,10.29,10.29,0,0,1-1.44,1.26,8.18,8.18,0,0,1-2,1,7.06,7.06,0,0,1-2.44.4,6,6,0,0,1-2.45-.48,3.78,3.78,0,0,1-1.7-1.43,4.1,4.1,0,0,1-.62-2.34V26.82a3.44,3.44,0,0,1,1.19-2.8A4.94,4.94,0,0,1,232,23Zm-4-6.23a8.72,8.72,0,0,1,3.09.48,3.58,3.58,0,0,1,1.9,1.63,6.36,6.36,0,0,1,.65,3.16V32.37h-3l-.53-3.28-.28-.44V22a2.36,2.36,0,0,0-.56-1.75,3.06,3.06,0,0,0-2.14-.55c-.78,0-1.77,0-3,.1s-2.38.14-3.58.24l-.34-2.57c.73-.14,1.54-.27,2.45-.37s1.83-.19,2.76-.25S235.21,16.78,236,16.78Z"/><path class="cls-2" d="M249.47,10.67l0,17.11a1.69,1.69,0,0,0,.49,1.32,2.06,2.06,0,0,0,1.43.45h1.33l.43,2.64a4.56,4.56,0,0,1-.94.27,10,10,0,0,1-1.24.18c-.43,0-.79,0-1.1,0a4.3,4.3,0,0,1-3-1,3.81,3.81,0,0,1-1.12-2.95v-18Z"/><path class="cls-2" d="M74.08,39.31V49H72.85V39.31Zm4.62,0v1H74v-1Zm1.08,0V49H78.55V39.31Z"/><path class="cls-2" d="M85,42a4.15,4.15,0,0,1,1.88.35,2.07,2.07,0,0,1,1,1.14,5.74,5.74,0,0,1,.32,2.09,5.79,5.79,0,0,1-.32,2.1,2.14,2.14,0,0,1-1,1.14,5.22,5.22,0,0,1-3.76,0,2.12,2.12,0,0,1-1-1.14,5.79,5.79,0,0,1-.32-2.1,5.74,5.74,0,0,1,.32-2.09,2.05,2.05,0,0,1,1-1.14A4.18,4.18,0,0,1,85,42Zm0,1a2.41,2.41,0,0,0-1.17.23,1.27,1.27,0,0,0-.62.79A5.25,5.25,0,0,0,83,45.57a5.38,5.38,0,0,0,.18,1.56,1.32,1.32,0,0,0,.62.79,2.53,2.53,0,0,0,1.17.23,2.5,2.5,0,0,0,1.17-.23,1.31,1.31,0,0,0,.61-.79A5.38,5.38,0,0,0,87,45.57,5.25,5.25,0,0,0,86.78,44a1.25,1.25,0,0,0-.61-.79A2.38,2.38,0,0,0,85,43Z"/><path class="cls-2" d="M91.08,42.16l.14,1.41.07.18v4.37l-.06.17q0,.39.06.75c0,.25,0,.5,0,.77v2H90.11V42.16ZM94,42a1.94,1.94,0,0,1,1.81.91,5.42,5.42,0,0,1,.55,2.7,6.5,6.5,0,0,1-.28,2.09,2.08,2.08,0,0,1-.86,1.12,2.84,2.84,0,0,1-1.44.33A5,5,0,0,1,92.45,49a4.72,4.72,0,0,1-1.26-.56l.07-.71,1.15.3a4.59,4.59,0,0,0,1.06.12,1.9,1.9,0,0,0,1-.21,1.31,1.31,0,0,0,.53-.76,5.61,5.61,0,0,0,.16-1.54A6.86,6.86,0,0,0,95,44.07a1.4,1.4,0,0,0-.48-.8,1.45,1.45,0,0,0-.87-.25,2.45,2.45,0,0,0-1.11.27,8.6,8.6,0,0,0-1.27.81l-.13-.8a4.4,4.4,0,0,1,.85-.7,4.72,4.72,0,0,1,1-.45A3.45,3.45,0,0,1,94,42Z"/><path class="cls-2" d="M103.65,42.16v1H97.52v-1Zm-2.46,0V49H100V42.16Z"/><path class="cls-2" d="M110.12,44.77l0,.9h-3.24a.92.92,0,0,0-.7.26,1.08,1.08,0,0,0-.2.68v.44a1,1,0,0,0,.26.77,1.1,1.1,0,0,0,.8.25,3.12,3.12,0,0,0,.89-.15,4.41,4.41,0,0,0,1-.45,4.07,4.07,0,0,0,.93-.79v.88a3.41,3.41,0,0,1-.43.46,4.4,4.4,0,0,1-.69.5,4,4,0,0,1-.88.41,3.3,3.3,0,0,1-1,.16,2.41,2.41,0,0,1-1.07-.22,1.58,1.58,0,0,1-.71-.64,2,2,0,0,1-.25-1v-.75a1.58,1.58,0,0,1,.49-1.24,2.06,2.06,0,0,1,1.4-.44ZM108.35,42a3.66,3.66,0,0,1,1.28.2,1.53,1.53,0,0,1,.78.68,2.65,2.65,0,0,1,.27,1.3V49h-.94l-.18-1.48-.07-.15V44.17a1.24,1.24,0,0,0-.3-.9A1.59,1.59,0,0,0,108.1,43c-.36,0-.81,0-1.35,0l-1.59.13-.11-.88c.32-.06.67-.11,1-.16s.77-.08,1.16-.11S108,42,108.35,42Z"/><path class="cls-2" d="M118.31,42.16v.93h-2.49a.91.91,0,0,0-.63.19,1.28,1.28,0,0,0-.26.67c0,.41-.1.83-.16,1.26s-.13.84-.2,1.24a6.72,6.72,0,0,1-.29,1.08,2.57,2.57,0,0,1-.47.83,1.84,1.84,0,0,1-.7.5,2.85,2.85,0,0,1-1,.18l-.12-.91a2.83,2.83,0,0,0,.61-.22,1.1,1.1,0,0,0,.36-.31,1.69,1.69,0,0,0,.23-.42,5.48,5.48,0,0,0,.23-.77c.06-.29.12-.59.16-.91s.09-.63.12-.93.07-.58.09-.82a2,2,0,0,1,.51-1.19,1.76,1.76,0,0,1,1.27-.4Zm.18,0V49H117.3V42.16Z"/><path class="cls-2" d="M130.42,48V49h-7.28V48Zm-6.4.88L123.91,51h-.77V48.9Zm5.29-6.74v.93h-2.44a.79.79,0,0,0-.85.83,15.17,15.17,0,0,1-.25,1.89,8.67,8.67,0,0,1-.51,1.66,6.81,6.81,0,0,1-.89,1.5h-1a7.4,7.4,0,0,0,.87-1.67,10.65,10.65,0,0,0,.48-1.76,14.12,14.12,0,0,0,.22-1.82,1.67,1.67,0,0,1,.49-1.17,1.78,1.78,0,0,1,1.25-.39Zm.17,0V49h-1.13V42.16Zm.94,6.74V51h-.79l-.11-2.09Z"/><path class="cls-2" d="M137.52,42.16v.93H135a.88.88,0,0,0-.62.19,1.2,1.2,0,0,0-.26.67c0,.41-.1.83-.16,1.26s-.13.84-.2,1.24a6.68,6.68,0,0,1-.3,1.08,2.38,2.38,0,0,1-.46.83,1.8,1.8,0,0,1-.71.5,2.79,2.79,0,0,1-1,.18l-.13-.91a2.48,2.48,0,0,0,.61-.22,1,1,0,0,0,.37-.31,2.08,2.08,0,0,0,.23-.42,5.55,5.55,0,0,0,.22-.77c.07-.29.12-.59.17-.91s.09-.63.12-.93.06-.58.09-.82a2,2,0,0,1,.51-1.19,1.76,1.76,0,0,1,1.27-.4Zm.18,0V49h-1.19V42.16Z"/><path class="cls-2" d="M142.3,42.09h1.28l.9,0,.83.06-.16.91c-.11,0-.41,0-.92,0h-1.9a1.62,1.62,0,0,0-1.13.28,1.38,1.38,0,0,0-.27,1,1.41,1.41,0,0,0,.29,1,1.6,1.6,0,0,0,1.15.3h2.79l0,.88h-2.87a1.42,1.42,0,0,0-.79.19.85.85,0,0,0-.4.51L140.61,49h-1.23l.61-2a1.07,1.07,0,0,1,.32-.48,1.47,1.47,0,0,1,.49-.27,2.76,2.76,0,0,1,.52-.12V46a2.17,2.17,0,0,1-.9-.33,1.36,1.36,0,0,1-.5-.63,2.71,2.71,0,0,1-.15-.95,2.77,2.77,0,0,1,.12-.85,1.44,1.44,0,0,1,.41-.64,2,2,0,0,1,.78-.39A4.75,4.75,0,0,1,142.3,42.09Zm3,.09V49h-1.16V42.18Z"/><path class="cls-2" d="M151.81,42.16V49h-1.16V42.16Zm3.62,0v1h-3.68v-1Zm1.06,0V49h-1.18V42.16Z"/><path class="cls-2" d="M161.59,42a4.15,4.15,0,0,1,1.88.35,2.05,2.05,0,0,1,1,1.14,5.76,5.76,0,0,1,.31,2.09,5.82,5.82,0,0,1-.31,2.1,2.12,2.12,0,0,1-1,1.14,5.22,5.22,0,0,1-3.76,0,2.12,2.12,0,0,1-1-1.14,5.79,5.79,0,0,1-.32-2.1,5.74,5.74,0,0,1,.32-2.09,2.05,2.05,0,0,1,1-1.14A4.18,4.18,0,0,1,161.59,42Zm0,1a2.43,2.43,0,0,0-1.17.23,1.27,1.27,0,0,0-.62.79,5.25,5.25,0,0,0-.18,1.55,5.38,5.38,0,0,0,.18,1.56,1.32,1.32,0,0,0,.62.79,2.56,2.56,0,0,0,1.17.23,2.5,2.5,0,0,0,1.17-.23,1.31,1.31,0,0,0,.61-.79,5.38,5.38,0,0,0,.18-1.56,5.25,5.25,0,0,0-.18-1.55,1.25,1.25,0,0,0-.61-.79A2.38,2.38,0,0,0,161.59,43Z"/><path class="cls-2" d="M172.68,42.16V49H171.6V44.45c0-.15,0-.29,0-.44s0-.3,0-.47h0a4.33,4.33,0,0,1-.22.42,4.17,4.17,0,0,1-.26.38L167.67,49h-1V42.16h1.08v4.52c0,.15,0,.29,0,.44a4.09,4.09,0,0,1,0,.47h0l.24-.42a4,4,0,0,1,.26-.37l3.47-4.64Z"/><path class="cls-2" d="M177.82,42l.69,0a6.9,6.9,0,0,1,.78.09,5.19,5.19,0,0,1,.73.2l-.16.77c-.3,0-.63,0-1-.06s-.63,0-.87,0a3,3,0,0,0-1.28.22,1.32,1.32,0,0,0-.7.78,5.9,5.9,0,0,0,0,3.12,1.31,1.31,0,0,0,.7.79,3,3,0,0,0,1.28.22h.55l.73,0c.25,0,.5,0,.73-.09l.11.8a5.64,5.64,0,0,1-1.11.27,9.83,9.83,0,0,1-1.21.08,4.4,4.4,0,0,1-1.89-.35,2.08,2.08,0,0,1-1-1.13,5.82,5.82,0,0,1-.31-2.1,5.74,5.74,0,0,1,.31-2.1,2,2,0,0,1,1-1.13A4.41,4.41,0,0,1,177.82,42Z"/><path class="cls-2" d="M183,42.16v2c0,.2,0,.41,0,.61a5.29,5.29,0,0,1-.13.6c.05.2.1.4.13.59s0,.38,0,.56V49H181.8V42.16ZM184.32,45v.92h-1.68V45Zm3.2-2.81c-.15.4-.29.76-.42,1.09a8.24,8.24,0,0,1-.41.88,2.9,2.9,0,0,1-.45.64,2,2,0,0,1-.56.43,2,2,0,0,1-.76.2v.05a2.35,2.35,0,0,1,.8.19,1.91,1.91,0,0,1,.59.43,3,3,0,0,1,.48.68c.14.27.29.59.44,1s.31.79.49,1.26h-1.25c-.16-.43-.32-.82-.46-1.17a9.14,9.14,0,0,0-.41-.87,2.91,2.91,0,0,0-.44-.6,1.51,1.51,0,0,0-.56-.33,2.29,2.29,0,0,0-.73-.11V45a1.7,1.7,0,0,0,.85-.19,1.77,1.77,0,0,0,.61-.55,5.11,5.11,0,0,0,.49-.88l.47-1.19Z"/><path class="cls-2" d="M194.3,44.77v.9H191a.92.92,0,0,0-.7.26,1.08,1.08,0,0,0-.2.68v.44a1,1,0,0,0,.26.77,1.11,1.11,0,0,0,.81.25,3.06,3.06,0,0,0,.88-.15,4.48,4.48,0,0,0,1-.45,4.24,4.24,0,0,0,.92-.79v.88a2.86,2.86,0,0,1-.43.46,4.79,4.79,0,0,1-.68.5,4.26,4.26,0,0,1-.89.41,3.3,3.3,0,0,1-1.05.16,2.44,2.44,0,0,1-1.07-.22,1.63,1.63,0,0,1-.71-.64,2,2,0,0,1-.25-1v-.75a1.58,1.58,0,0,1,.49-1.24,2.08,2.08,0,0,1,1.4-.44ZM192.54,42a3.64,3.64,0,0,1,1.27.2,1.49,1.49,0,0,1,.78.68,2.65,2.65,0,0,1,.27,1.3V49h-.94l-.18-1.48-.07-.15V44.17a1.24,1.24,0,0,0-.3-.9,1.59,1.59,0,0,0-1.09-.27c-.36,0-.81,0-1.35,0l-1.59.13-.11-.88c.32-.06.67-.11,1.05-.16s.77-.08,1.16-.11S192.2,42,192.54,42Z"/><path class="cls-2" d="M201.93,42a8.73,8.73,0,0,1,1.81.15,1.64,1.64,0,0,1,1,.54,1.83,1.83,0,0,1,.3,1.13,1.74,1.74,0,0,1-.32,1.12,1.52,1.52,0,0,1-1.12.47v0a1.81,1.81,0,0,1,1.29.5,1.89,1.89,0,0,1,.39,1.3,1.79,1.79,0,0,1-.3,1.11A1.61,1.61,0,0,1,204,49a7.63,7.63,0,0,1-1.69.15c-.42,0-.87,0-1.34-.05s-.93-.09-1.36-.16l.1-.91,1.15.08,1.37,0a3.13,3.13,0,0,0,1.4-.21A.9.9,0,0,0,204,47a1.17,1.17,0,0,0-.16-.67.89.89,0,0,0-.54-.34,4.86,4.86,0,0,0-1.05-.09h-1.63v-.87l1.62,0a4,4,0,0,0,1-.09.74.74,0,0,0,.48-.31,1.13,1.13,0,0,0,.14-.63.94.94,0,0,0-.17-.61,1,1,0,0,0-.58-.28,6.55,6.55,0,0,0-1.14-.08c-.36,0-.73,0-1.09,0s-.67.05-.92.08l-.1-.91a6.44,6.44,0,0,1,1.13-.17C201.32,42.06,201.65,42,201.93,42Z"/><path class="cls-2" d="M212.09,44.77v.9h-3.25a.88.88,0,0,0-.69.26,1,1,0,0,0-.21.68v.44a1,1,0,0,0,.26.77,1.12,1.12,0,0,0,.81.25,3.12,3.12,0,0,0,.89-.15,4.61,4.61,0,0,0,1-.45,4.24,4.24,0,0,0,.92-.79v.88a2.73,2.73,0,0,1-.42.46,5.59,5.59,0,0,1-.69.5,4,4,0,0,1-.89.41,3.3,3.3,0,0,1-1.05.16,2.36,2.36,0,0,1-1.06-.22,1.6,1.6,0,0,1-.72-.64,2,2,0,0,1-.25-1v-.75a1.59,1.59,0,0,1,.5-1.24,2,2,0,0,1,1.39-.44ZM210.33,42a3.6,3.6,0,0,1,1.27.2,1.51,1.51,0,0,1,.79.68,2.77,2.77,0,0,1,.26,1.3V49h-.94l-.18-1.48-.07-.15V44.17a1.29,1.29,0,0,0-.29-.9,1.61,1.61,0,0,0-1.09-.27c-.37,0-.82,0-1.35,0l-1.59.13L207,42.3c.32-.06.67-.11,1-.16s.77-.08,1.17-.11S210,42,210.33,42Z"/><path class="cls-2" d="M216,42.16v2a4.17,4.17,0,0,1,0,.61,3.75,3.75,0,0,1-.13.6A4.49,4.49,0,0,1,216,46a3.69,3.69,0,0,1,0,.56V49h-1.19V42.16ZM217.34,45v.92h-1.68V45Zm3.21-2.81c-.15.4-.29.76-.43,1.09a6.66,6.66,0,0,1-.41.88,2.88,2.88,0,0,1-.44.64,2.14,2.14,0,0,1-.57.43,1.93,1.93,0,0,1-.76.2v.05a2.29,2.29,0,0,1,.8.19,2,2,0,0,1,.6.43,3,3,0,0,1,.47.68,8.89,8.89,0,0,1,.44,1c.15.37.32.79.49,1.26H219.5L219,47.8a7.13,7.13,0,0,0-.42-.87,2.59,2.59,0,0,0-.44-.6,1.47,1.47,0,0,0-.55-.33,2.35,2.35,0,0,0-.74-.11V45a1.76,1.76,0,0,0,.86-.19,2,2,0,0,0,.61-.55,5.11,5.11,0,0,0,.48-.88c.15-.35.31-.75.48-1.19Z"/><path class="cls-2" d="M227.32,44.77v.9h-3.25a.9.9,0,0,0-.69.26,1,1,0,0,0-.2.68v.44a1,1,0,0,0,.25.77,1.14,1.14,0,0,0,.81.25,3.12,3.12,0,0,0,.89-.15,4.61,4.61,0,0,0,1-.45,4,4,0,0,0,.92-.79v.88a2.73,2.73,0,0,1-.42.46,4.4,4.4,0,0,1-.69.5,3.83,3.83,0,0,1-.89.41,3.25,3.25,0,0,1-1,.16,2.39,2.39,0,0,1-1.06-.22,1.6,1.6,0,0,1-.72-.64,2.11,2.11,0,0,1-.25-1v-.75a1.59,1.59,0,0,1,.5-1.24,2,2,0,0,1,1.39-.44ZM225.56,42a3.6,3.6,0,0,1,1.27.2,1.51,1.51,0,0,1,.79.68,2.77,2.77,0,0,1,.26,1.3V49H227l-.19-1.48-.07-.15V44.17a1.24,1.24,0,0,0-.29-.9,1.61,1.61,0,0,0-1.09-.27c-.37,0-.82,0-1.35,0l-1.59.13-.11-.88c.31-.06.66-.11,1.05-.16s.77-.08,1.16-.11S225.22,42,225.56,42Z"/><path class="cls-2" d="M231.83,42a8.67,8.67,0,0,1,1.81.15,1.61,1.61,0,0,1,1,.54,1.83,1.83,0,0,1,.3,1.13A1.74,1.74,0,0,1,234.6,45a1.55,1.55,0,0,1-1.13.47v0a1.84,1.84,0,0,1,1.3.5,1.94,1.94,0,0,1,.38,1.3,1.86,1.86,0,0,1-.29,1.11,1.64,1.64,0,0,1-.94.55,7.79,7.79,0,0,1-1.7.15c-.42,0-.86,0-1.34-.05s-.93-.09-1.36-.16l.1-.91,1.16.08,1.36,0a3.22,3.22,0,0,0,1.41-.21.92.92,0,0,0,.37-.84,1.25,1.25,0,0,0-.16-.67.92.92,0,0,0-.55-.34,4.76,4.76,0,0,0-1-.09h-1.64v-.87l1.62,0a4,4,0,0,0,1-.09.79.79,0,0,0,.49-.31,1.23,1.23,0,0,0,.14-.63.89.89,0,0,0-.18-.61,1,1,0,0,0-.58-.28,6.5,6.5,0,0,0-1.13-.08c-.37,0-.73,0-1.1,0s-.67.05-.92.08l-.1-.91a6.58,6.58,0,0,1,1.13-.17C231.23,42.06,231.55,42,231.83,42Z"/><path class="cls-2" d="M239.88,42a4.15,4.15,0,0,1,1.88.35,2.07,2.07,0,0,1,1,1.14,5.74,5.74,0,0,1,.32,2.09,5.79,5.79,0,0,1-.32,2.1,2.14,2.14,0,0,1-1,1.14,5.22,5.22,0,0,1-3.76,0,2.12,2.12,0,0,1-1-1.14,5.79,5.79,0,0,1-.32-2.1,5.74,5.74,0,0,1,.32-2.09,2.05,2.05,0,0,1,1-1.14A4.18,4.18,0,0,1,239.88,42Zm0,1a2.43,2.43,0,0,0-1.17.23,1.27,1.27,0,0,0-.62.79,5.25,5.25,0,0,0-.18,1.55,5.38,5.38,0,0,0,.18,1.56,1.32,1.32,0,0,0,.62.79,2.56,2.56,0,0,0,1.17.23,2.5,2.5,0,0,0,1.17-.23,1.31,1.31,0,0,0,.61-.79,5.38,5.38,0,0,0,.18-1.56,5.25,5.25,0,0,0-.18-1.55,1.25,1.25,0,0,0-.61-.79A2.38,2.38,0,0,0,239.88,43Z"/><path class="cls-2" d="M247.75,42.09a7.57,7.57,0,0,1,1.69.15,1.47,1.47,0,0,1,.9.55,1.87,1.87,0,0,1,.28,1.12,1.53,1.53,0,0,1-.34,1.09,1.71,1.71,0,0,1-1.13.45v0a1.83,1.83,0,0,1,1.33.52,2,2,0,0,1,.38,1.28,1.81,1.81,0,0,1-.28,1.09,1.43,1.43,0,0,1-.86.54,6.79,6.79,0,0,1-1.59.15h-1.25l-1,0L245,49l.17-.88,1,0H248a4.53,4.53,0,0,0,1-.09.87.87,0,0,0,.54-.33,1.25,1.25,0,0,0,.16-.67,1,1,0,0,0-.39-.9,2.88,2.88,0,0,0-1.39-.25h-2.76V45h2.76a4.69,4.69,0,0,0,.94-.08.83.83,0,0,0,.5-.32,1.16,1.16,0,0,0,.16-.64,1,1,0,0,0-.17-.6.91.91,0,0,0-.56-.29,4.86,4.86,0,0,0-1-.09h-1.93a5.53,5.53,0,0,0-.63,0l-.17-.88.82-.06.86,0Zm-1.65.08V49H245V42.17Z"/></svg>