<svg xmlns="http://www.w3.org/2000/svg" viewBox="0 0 555.54 178.87"><defs><style>.cls-1{fill:#1b75bc;}</style></defs><title>Asset 1</title><g id="Layer_2" data-name="Layer 2"><g id="Layer_1-2" data-name="Layer 1"><polygon class="cls-1" points="182.31 95.97 182.31 68.9 178.22 68.9 170.44 85.74 162.54 68.9 158.48 68.9 158.48 95.97 162.58 95.97 162.58 77.87 168.92 91.07 171.95 91.07 178.18 77.87 178.18 95.97 182.31 95.97 182.31 95.97"/><path class="cls-1" d="M207.82,80.53c0-3.84-.54-6.84-2.62-9a10.2,10.2,0,0,0-14.23,0c-2.28,2.28-2.62,5.17-2.62,9.62V83c0,4,0,7.72,2.62,10.34a10.2,10.2,0,0,0,14.23,0c2.58-2.66,2.62-6,2.62-10.49V80.53Zm-4.14,1.64c0,4.6,0,7-1.59,8.67a5.37,5.37,0,0,1-4,1.67,5.54,5.54,0,0,1-4-1.67c-1.44-1.45-1.56-4-1.56-6.77V81.75c0-3.46,0-6.12,1.56-7.72a5.69,5.69,0,0,1,8.05,0c1.51,1.6,1.59,4,1.59,8.14Z"/><path class="cls-1" d="M232.25,87.87h-4.13c-.65,2.74-2.51,4.64-5.5,4.64a5.42,5.42,0,0,1-4-1.63c-1.33-1.45-1.63-3-1.63-8.44s.3-7,1.63-8.45a5.42,5.42,0,0,1,4-1.63c3,0,4.82,1.9,5.46,4.64h4.17c-.94-5.4-4.66-8.33-9.63-8.33a9.8,9.8,0,0,0-7.1,2.89c-2.66,2.66-2.62,5.67-2.62,10.88s0,8.21,2.62,10.87a9.8,9.8,0,0,0,7.1,2.89c4.89,0,8.72-2.93,9.63-8.33Z"/><polygon class="cls-1" points="241.93 95.97 241.93 81.83 252.82 95.97 258.02 95.97 246.68 81.67 257.07 68.9 252.03 68.9 241.93 81.75 241.93 68.9 237.83 68.9 237.83 95.97 241.93 95.97 241.93 95.97"/><path class="cls-1" d="M279.88,80.53c0-3.84-.53-6.84-2.62-9a10.2,10.2,0,0,0-14.23,0c-2.28,2.28-2.62,5.17-2.62,9.62V83c0,4,0,7.72,2.62,10.34a10.2,10.2,0,0,0,14.23,0c2.58-2.66,2.62-6,2.62-10.49V80.53Zm-4.14,1.64c0,4.6,0,7-1.59,8.67a5.35,5.35,0,0,1-4,1.67,5.52,5.52,0,0,1-4-1.67c-1.45-1.45-1.56-4-1.56-6.77V81.75c0-3.46,0-6.12,1.56-7.72a5.67,5.67,0,0,1,8,0c1.52,1.6,1.59,4,1.59,8.14Z"/><path class="cls-1" d="M305,88.37A6.39,6.39,0,0,0,301,82.09a6.14,6.14,0,0,0,3.64-5.89c0-4.41-3.22-7.3-8.16-7.3H286V96h10.93c5.05,0,8.16-2.93,8.16-7.6Zm-4.51-11.9c0,2.43-1.67,3.87-4.41,3.87h-6.07V72.59h6.07c2.74,0,4.41,1.44,4.41,3.88Zm.38,11.67c0,2.55-1.71,4.14-4.45,4.14h-6.41V84h6.41c2.74,0,4.45,1.6,4.45,4.11Z"/><path class="cls-1" d="M329.48,87.87h-4.14c-.64,2.74-2.5,4.64-5.5,4.64a5.41,5.41,0,0,1-4-1.63c-1.33-1.45-1.63-3-1.63-8.44s.3-7,1.63-8.45a5.41,5.41,0,0,1,4-1.63c3,0,4.82,1.9,5.47,4.64h4.17c-1-5.4-4.67-8.33-9.64-8.33a9.76,9.76,0,0,0-7.09,2.89c-2.66,2.66-2.62,5.67-2.62,10.88s0,8.21,2.62,10.87a9.76,9.76,0,0,0,7.09,2.89c4.9,0,8.73-2.93,9.64-8.33Z"/><polygon class="cls-1" points="339.16 95.97 339.16 81.83 350.05 95.97 355.25 95.97 343.9 81.67 354.3 68.9 349.25 68.9 339.16 81.75 339.16 68.9 335.06 68.9 335.06 95.97 339.16 95.97 339.16 95.97"/><path class="cls-1" d="M378.47,96,368.61,68.9H365.3L355.4,96h4.33l1.89-5.44h10.67L374.18,96ZM371.19,87H362.8l4.25-12,4.14,12Z"/><path class="cls-1" d="M390.58,85.33h5.35V96h4.14V68.9H389.78c-5.12,0-8.61,3.19-8.61,8.21a7.51,7.51,0,0,0,5.2,7.45L380.48,96h4.86l5.24-10.64Zm5.35-3.69h-5.88c-3,0-4.78-1.79-4.78-4.57s1.82-4.52,4.78-4.52h5.88v9.09Z"/><path class="cls-1" d="M178.33,134.38l-9.87-27.08h-3.3l-9.9,27.08h4.32l1.9-5.44h10.66l1.9,5.44ZM171,125.44h-8.38l4.25-12,4.13,12Z"/><path class="cls-1" d="M200.57,126.28h-4.14c-.64,2.74-2.5,4.64-5.5,4.64a5.39,5.39,0,0,1-4-1.64c-1.32-1.44-1.63-3-1.63-8.44s.31-7,1.63-8.44a5.39,5.39,0,0,1,4-1.64c3,0,4.82,1.9,5.46,4.64h4.18c-.95-5.4-4.67-8.32-9.64-8.32a9.76,9.76,0,0,0-7.1,2.89c-2.65,2.66-2.62,5.66-2.62,10.87s0,8.21,2.62,10.88a9.8,9.8,0,0,0,7.1,2.89c4.89,0,8.73-2.93,9.64-8.33Z"/><path class="cls-1" d="M224.4,126.28h-4.14c-.64,2.74-2.5,4.64-5.5,4.64a5.37,5.37,0,0,1-4-1.64c-1.33-1.44-1.64-3-1.64-8.44s.31-7,1.64-8.44a5.37,5.37,0,0,1,4-1.64c3,0,4.82,1.9,5.47,4.64h4.17c-1-5.4-4.67-8.32-9.64-8.32a9.76,9.76,0,0,0-7.1,2.89c-2.65,2.66-2.61,5.66-2.61,10.87s0,8.21,2.61,10.88a9.8,9.8,0,0,0,7.1,2.89c4.9,0,8.73-2.93,9.64-8.33Z"/><path class="cls-1" d="M248.35,118.94c0-3.84-.54-6.85-2.62-9a10.2,10.2,0,0,0-14.23,0c-2.28,2.28-2.62,5.17-2.62,9.62v1.78c0,4,0,7.72,2.62,10.35a10.2,10.2,0,0,0,14.23,0c2.58-2.67,2.62-6,2.62-10.5v-2.28Zm-4.14,1.63c0,4.6,0,7-1.59,8.67a5.34,5.34,0,0,1-4,1.68,5.51,5.51,0,0,1-4-1.68c-1.44-1.44-1.56-4-1.56-6.76v-2.32c0-3.46,0-6.13,1.56-7.72a5.66,5.66,0,0,1,8.05,0c1.51,1.59,1.59,4,1.59,8.13Z"/><polygon class="cls-1" points="276.73 140.46 276.73 130.69 273.54 130.69 273.54 107.3 269.44 107.3 269.44 130.69 258.51 130.69 258.51 107.3 254.42 107.3 254.42 134.38 272.75 134.38 272.75 140.46 276.73 140.46 276.73 140.46"/><polygon class="cls-1" points="301.47 134.38 301.47 107.3 297.72 107.3 285.65 126.92 285.65 107.3 281.55 107.3 281.55 134.38 285.27 134.38 297.38 114.72 297.38 134.38 301.47 134.38 301.47 134.38"/><path class="cls-1" d="M328.38,134.38l-9.87-27.08h-3.3l-9.9,27.08h4.32l1.9-5.44h10.66l1.9,5.44Zm-7.29-8.94h-8.38l4.25-12,4.13,12Z"/><polygon class="cls-1" points="354.56 140.46 354.56 130.69 351.38 130.69 351.38 107.3 347.28 107.3 347.28 130.69 336.35 130.69 336.35 107.3 332.25 107.3 332.25 134.38 350.58 134.38 350.58 140.46 354.56 140.46 354.56 140.46"/><polygon class="cls-1" points="379.31 134.38 379.31 107.3 375.55 107.3 363.48 126.92 363.48 107.3 359.38 107.3 359.38 134.38 363.1 134.38 375.21 114.72 375.21 134.38 379.31 134.38 379.31 134.38"/><path class="cls-1" d="M394.6,123.73H400v10.65h4.14V107.3H393.8c-5.12,0-8.61,3.2-8.61,8.22a7.51,7.51,0,0,0,5.2,7.45l-5.88,11.41h4.85l5.24-10.65ZM400,120h-5.88c-3,0-4.78-1.79-4.78-4.56s1.82-4.53,4.78-4.53H400V120Z"/><polygon class="cls-1" points="177.61 172.78 177.61 145.71 158.48 145.71 158.48 172.78 162.58 172.78 162.58 149.4 173.51 149.4 173.51 172.78 177.61 172.78 177.61 172.78"/><path class="cls-1" d="M203.57,153.92c0-4.87-3.53-8.21-8.66-8.21H184.67v27.07h4.1V162.13h6.14c5.13,0,8.66-3.34,8.66-8.21Zm-4.1,0c0,2.78-1.86,4.53-4.82,4.53h-5.88v-9h5.88c3,0,4.82,1.71,4.82,4.52Z"/><polygon class="cls-1" points="225.84 172.78 225.84 169.09 212.63 169.09 212.63 160.96 223.87 160.96 223.87 157.31 212.63 157.31 212.63 149.4 225.84 149.4 225.84 145.71 208.54 145.71 208.54 172.78 225.84 172.78 225.84 172.78"/><path class="cls-1" d="M238.36,149.4h7.52v19.69H235.71c2-3.8,2.65-8.48,2.65-13.65v-6Zm-3.94-3.69v8c0,6.43-.95,11.75-3.3,15.4h-2.36v9.78h4v-6.09h16.39v6.09h4v-9.78H250V145.71Z"/><polygon class="cls-1" points="277.11 172.78 277.11 145.71 257.98 145.71 257.98 172.78 262.08 172.78 262.08 149.4 273.01 149.4 273.01 172.78 277.11 172.78 277.11 172.78"/><path class="cls-1" d="M303.07,153.92c0-4.87-3.53-8.21-8.65-8.21H284.17v27.07h4.1V162.13h6.15c5.12,0,8.65-3.34,8.65-8.21Zm-4.1,0c0,2.78-1.86,4.53-4.82,4.53h-5.88v-9h5.88c3,0,4.82,1.71,4.82,4.52Z"/><polygon class="cls-1" points="327.96 172.78 327.96 145.71 324.2 145.71 312.14 165.33 312.14 145.71 308.04 145.71 308.04 172.78 311.76 172.78 323.86 153.12 323.86 172.78 327.96 172.78 327.96 172.78"/><polygon class="cls-1" points="354.19 172.78 354.19 145.71 350.05 145.71 350.05 157.31 339.12 157.31 339.12 145.71 335.02 145.71 335.02 172.78 339.12 172.78 339.12 160.96 350.05 160.96 350.05 172.78 354.19 172.78 354.19 172.78"/><polygon class="cls-1" points="381.13 172.78 381.13 145.71 377.37 145.71 365.3 165.33 365.3 145.71 361.21 145.71 361.21 172.78 364.93 172.78 377.03 153.12 377.03 172.78 381.13 172.78 381.13 172.78"/><polygon class="cls-1" points="412.02 172.78 412.02 145.71 407.92 145.71 400.14 162.55 392.25 145.71 388.19 145.71 388.19 172.78 392.29 172.78 392.29 154.68 398.62 167.88 401.66 167.88 407.88 154.68 407.88 172.78 412.02 172.78 412.02 172.78"/><path class="cls-1" d="M438.89,172.78,429,145.71h-3.3l-9.9,27.07h4.32l1.9-5.44H432.7l1.9,5.44Zm-7.29-8.93h-8.38l4.25-12,4.13,12Z"/><polygon class="cls-1" points="459.34 149.4 459.34 145.71 440.37 145.71 440.37 149.4 447.81 149.4 447.81 172.78 451.9 172.78 451.9 149.4 459.34 149.4 459.34 149.4"/><polygon class="cls-1" points="481.31 172.78 481.31 169.09 468.11 169.09 468.11 160.96 479.34 160.96 479.34 157.31 468.11 157.31 468.11 149.4 481.31 149.4 481.31 145.71 464.01 145.71 464.01 172.78 481.31 172.78 481.31 172.78"/><path class="cls-1" d="M505.64,172.78V145.71H489.78v11.67c0,9.81-2.17,11.71-5.16,11.71h-.72v3.69h1.7c5.43,0,8.16-3.46,8.16-14.83V149.4h7.78v23.38Z"/><polygon class="cls-1" points="530.04 172.78 530.04 169.09 516.84 169.09 516.84 160.96 528.07 160.96 528.07 157.31 516.84 157.31 516.84 149.4 530.04 149.4 530.04 145.71 512.74 145.71 512.74 172.78 530.04 172.78 530.04 172.78"/><path class="cls-1" d="M551.45,139h-3.08a2.78,2.78,0,0,1-5.54,0h-3.07c.19,3.76,2.77,5.09,5.84,5.09s5.66-1.33,5.85-5.09Zm4.09,33.76V145.71h-3.75l-12.07,19.62V145.71h-4.1v27.07h3.72l12.11-19.66v19.66Z"/><path class="cls-1" d="M77.6,0C80,5.52,82,11.52,86.14,15.27c3-2.55,4.48-6.52,6.11-10.38C94,14.52,105,21.14,107.52,29.31c1.91,6.22-4.42,9.51-5.52,10.4-1.38.26-34.32.34-35.39.39-14-13.58,9-25.58,11-40.1"/><path class="cls-1" d="M87.37,53.13V43.36h17.1V90.64c10.69.8,13.47-9.39,12.82-21,4.14-1.35,10.74-.25,15.88-.6,1.4,33.19.21,69.59.61,103.8H117.9V92.21c-1.63,1.21-6.73,5-12.82,4.88v75.72H89.2c-.37-10.88-.21-25-.61-37.25-4.64.86-7.12,3.88-9.16,7.33.17.8,4.63-1.08,4.89,1.22,1,8.16-7,8.4-9.77,3.67v25H58.67c-.14-14.34.06-44.23,0-62.29,12.41-4.79,26.77-19,27.48-37.24.4-10.46-3.53-26.39-15.88-24.43,1.28,4.8,5.84,4.4,6.1,9.16.36,6.22-7.87,11.05-14,7.33C51,58.49,61,38.71,77,44c4,1.3,7.56,5.3,10.38,9.16M74.55,108.7v28.08c5.41-1.5,9.54-4.29,11-9.76-3.9,2.63-8.24-3.92-3.67-7.33,1.77-1.32,5.48-.5,6.72.61V89.76c.89-.37-9.85,15.29-14,18.94"/><path class="cls-1" d="M28.75,72.67c1.3-4.87,11.23-4.16,16.48-3.06v33C56.54,98,60.7,86.3,59.28,69l15.27.6c-1.46,9.09,1.72,18-.28,25-1.79,6.32-9.61,8.85-15,9.8,0-2-.3-4.07-.3-6.1-3.8,2.72-8.59,9.42-13.75,12.82v61.67H29.36c-.3-24.33-.91-48.35-.61-73.27-3.87,3.46-8,6.66-11.61,10.38V172.2H1.88L1,105.61c9.83-1,24.15-5.55,27.18-15.24,5.05-16.07-16.68-27.43-22-11,4,1.42,4.06-2.59,8.55-1.83,9.68,1.65,7.33,20-3.78,20.09C3.1,97.7.31,91,0,84-.34,75.5,4.78,68.48,13.3,67c6.07-1,12.68.57,15.45,5.66"/></g></g></svg>