<svg width="273" height="100" viewBox="0 0 273 100" fill="none" xmlns="http://www.w3.org/2000/svg">
<path d="M105.917 37.1708L103.42 42.4391C100.635 40.7805 97.1786 39.7074 95.066 39.7074C93.3375 39.7074 92.1852 40.3903 92.1852 41.6586C92.1852 46.2439 106.013 43.6098 106.013 53.2683C106.013 58.5366 101.404 61.3659 95.5461 61.3659C91.129 61.3659 86.7118 59.7074 83.543 57.0732L86.1356 51.9025C88.8244 54.3415 92.8574 55.9025 95.5461 55.9025C97.6587 55.9025 98.907 55.122 98.907 53.561C98.907 48.8781 85.0794 51.7074 85.0794 42.2439C85.0794 37.3659 89.2085 34.2439 95.5461 34.2439C99.2911 34.1464 103.228 35.3171 105.917 37.1708Z" fill="#0D72B9"/>
<path d="M127.331 47.7073V61.0731H120.993V58.7317C119.649 60.4878 117.536 61.3658 114.847 61.3658C110.526 61.3658 107.934 58.7317 107.934 54.9268C107.934 51.0244 110.622 48.7805 115.712 48.7805H120.993V48.4878C120.993 46.439 119.649 45.2683 117.056 45.2683C115.328 45.2683 113.215 45.8536 111.006 47.0244L109.182 42.7317C112.351 41.2683 115.135 40.3902 118.496 40.3902C124.066 40.2927 127.331 43.0244 127.331 47.7073ZM120.993 54.1463V52.2927H116.96C115.039 52.2927 114.079 52.9756 114.079 54.5366C114.079 56 115.135 56.9756 116.96 56.9756C118.88 56.878 120.609 55.8049 120.993 54.1463Z" fill="#0D72B9"/>
<path d="M139.525 40.0002V41.4636H144.038V45.8538H139.525V61.0734H133.091V45.8538H130.402V41.5612H133.091V39.7075C133.091 35.2197 136.452 32.6831 140.773 32.6831C142.79 32.6831 144.902 33.1709 146.439 34.1465L144.134 38.7319C143.462 38.2441 142.502 37.8538 141.733 37.8538C140.581 37.7563 139.525 38.5368 139.525 40.0002Z" fill="#0D72B9"/>
<path d="M164.974 52.5857H150.858C151.53 55.0248 153.258 56.3906 155.563 56.3906C157.292 56.3906 159.02 55.7077 160.364 54.3418L163.725 57.7565C161.709 60.0004 158.636 61.3662 154.987 61.3662C148.457 61.3662 144.328 57.1711 144.328 50.9272C144.328 44.5857 148.553 40.3906 154.795 40.3906C161.901 40.3906 165.454 45.0736 164.974 52.5857ZM158.828 49.0736C158.828 46.537 157.292 44.976 154.987 44.976C152.778 44.976 151.242 46.6345 150.762 49.0736H158.828Z" fill="#0D72B9"/>
<path d="M190.898 38.4393L188.305 41.6588C186.385 39.61 183.696 38.2441 181.007 38.2441C175.822 38.2441 171.693 42.3417 171.693 47.61C171.693 52.8783 175.822 56.9758 181.007 56.9758C183.6 56.9758 186.289 55.8051 188.305 53.8539L190.898 56.7807C188.209 59.4149 184.464 61.171 180.815 61.171C173.133 61.171 167.18 55.3173 167.18 47.61C167.18 40.0978 173.229 34.2441 180.911 34.2441C184.656 34.3417 188.305 35.9027 190.898 38.4393Z" fill="#0D72B9"/>
<path d="M199.446 44.8782C200.79 42.1465 203.191 40.6831 206.36 40.6831V44.8782C202.327 44.6831 199.83 47.0246 199.446 50.5368V61.0734H195.125V40.8782H199.446V44.8782Z" fill="#0D72B9"/>
<path d="M228.734 50.927C228.734 56.9758 224.509 61.1709 218.363 61.1709C212.217 61.1709 207.992 56.9758 207.992 50.927C207.992 44.7807 212.217 40.6831 218.363 40.6831C224.509 40.6831 228.734 44.8782 228.734 50.927ZM212.313 51.0246C212.313 54.927 214.81 57.5612 218.363 57.5612C221.916 57.5612 224.413 54.927 224.413 51.0246C224.413 47.1221 221.916 44.488 218.363 44.488C214.81 44.488 212.313 47.1221 212.313 51.0246Z" fill="#0D72B9"/>
<path d="M251.202 61.0735L246.113 46.1467L241.024 61.0735H236.607L229.309 40.8784H233.726L238.911 56.7809L243.904 40.8784H248.322L253.411 56.7809L258.5 40.8784H262.917L255.716 61.0735H251.202Z" fill="#0D72B9"/>
<path d="M67.3142 32.7807V20.1953H12.6758V52.3904C12.6758 55.8051 13.54 59.1221 15.2685 62.049C16.9969 64.9758 19.0135 67.8051 21.222 70.3416C28.52 50.5368 46.0926 35.8051 67.3142 32.7807Z" fill="#0D72B9"/>
<path d="M75.3809 32.1953C75.1889 32.1953 74.9968 32.1953 74.7088 32.1953C72.1161 33.2685 69.7154 34.6343 67.3148 36.0978C51.3746 46.049 40.5237 63.8051 39.8516 84.0977C39.9476 84.0977 39.9476 84.1953 40.0436 84.1953C50.4144 79.6099 59.0566 71.9026 64.8182 62.1465C66.5466 59.2197 67.4108 55.9026 67.4108 52.488V40.1953C71.2518 37.0734 75.477 34.4392 80.0862 32.3904C78.4538 32.2929 76.9173 32.1953 75.3809 32.1953Z" fill="#0D72B9"/>
</svg>
