<?xml version="1.0" encoding="UTF-8"?>
<!-- Created with Inkscape (http://www.inkscape.org/) -->
<svg width="971.47" height="195.2" version="1.1" viewBox="0 0 971.47 195.2" xml:space="preserve" xmlns="http://www.w3.org/2000/svg" xmlns:cc="http://creativecommons.org/ns#" xmlns:dc="http://purl.org/dc/elements/1.1/" xmlns:rdf="http://www.w3.org/1999/02/22-rdf-syntax-ns#"><metadata><rdf:RDF><cc:Work rdf:about=""><dc:format>image/svg+xml</dc:format><dc:type rdf:resource="http://purl.org/dc/dcmitype/StillImage"/><dc:title/></cc:Work></rdf:RDF></metadata><g transform="matrix(1.3333 0 0 -1.3333 0 195.2)"><g fill="#ef3124"><path d="m703.61 117.49-24.862-27.86v27.86h-17.991v-70.338h17.991v29.609l26.611-29.609h23.238l-32.733 36.855 30.359 33.483z"/><path d="m629.04 91.249h-24.862v26.236h-17.991v-70.338h17.991v27.735h24.862v-27.735h17.99v70.338h-17.99z"/><path d="m106.82 79.38c-0.43-13.115-2.124-15.742-9.495-15.742v-16.491h2.748c18.388 0 22.81 9.496 23.488 30.609l0.75 23.363h17.24v-53.972h17.992v70.338h-51.474z"/><path d="m202.88 62.639h-11.619v17.866h11.619c6.246 0 9.994-2.749 9.994-8.62 0-6.372-3.623-9.246-9.994-9.246m1.374 33.482h-12.993v21.365h-17.99v-70.339h31.233c19.615 0 26.611 12.744 26.611 24.738 0 15.491-9.745 24.236-26.861 24.236"/><path d="m289.71 62.514v39.729c9.995-1.374 16.242-8.87 16.242-19.864s-6.247-18.49-16.242-19.865m-17.99 0c-9.995 1.375-16.241 8.871-16.241 19.865s6.246 18.49 16.241 19.864zm17.99 56.596v26.112h-17.99v-26.112c-20.614-1.75-34.483-16.367-34.483-36.731 0-20.49 13.869-35.107 34.483-36.856v-26.487h17.99v26.487c20.614 1.624 34.482 16.366 34.482 36.856 0 20.489-13.868 35.107-34.482 36.731"/><path d="m373.67 73.383c0-8.121-5.747-12.744-13.243-12.744-6.497 0-11.619 2.374-11.619 9.371 0 6.871 5.622 7.995 10.495 7.995h14.367zm17.99-4.623v23.613c0 17.241-10.994 28.111-29.484 28.111-19.115 0-29.235-11.495-30.11-23.488h18.241c0.625 2.624 3.374 7.121 11.869 7.121 6.996 0 11.494-3.249 11.494-11.744h-17.866c-15.991 0-25.487-8.37-25.487-22.363 0-14.618 10.387-24.613 25.362-24.613 10.981 0 17.077 5.19 19.74 9.12 2.373-4.746 7.621-7.37 14.492-7.37h6.247v16.241c-3.248 0-4.498 1.499-4.498 5.372"/><path d="m467.87 64.888h-19.24v25.487h19.24c9.994 0 15.616-4.623 15.616-12.743 0-8.371-5.622-12.744-15.616-12.744m0.874 42.603h-20.114v19.864h46.6v17.866h-65.465v-98.074h38.979c21.614 0 33.982 10.744 33.982 30.485 0 18.614-12.368 29.859-33.982 29.859"/><path d="m553.58 73.383c0-8.121-5.747-12.744-13.243-12.744-6.496 0-11.619 2.374-11.619 9.371 0 6.871 5.622 7.995 10.495 7.995h14.367zm17.99-4.623v23.613c0 17.241-10.994 28.111-29.484 28.111-19.115 0-29.235-11.495-30.11-23.488h18.241c0.625 2.624 3.374 7.121 11.869 7.121 6.996 0 11.494-3.249 11.494-11.744h-17.866c-15.991 0-25.487-8.37-25.487-22.363 0-14.618 10.388-24.613 25.362-24.613 10.982 0 17.077 5.19 19.74 9.12 2.374-4.746 7.621-7.37 14.493-7.37h6.246v16.241c-3.248 0-4.498 1.499-4.498 5.372"/><path d="m96.2 0h-96.2v19.99h96.2z"/><path d="m34.357 84.252 13.493 40.104h0.5l12.743-40.104zm31.229 47.507c-2.743 8.18-5.904 14.641-16.736 14.641-10.833 0-14.197-6.435-17.084-14.641l-29.766-84.612h19.739l6.872 20.114h37.979l6.372-20.114h20.99z"/></g></g></svg>
