<?xml version="1.0" encoding="UTF-8" standalone="no"?>
<svg
   xmlns:dc="http://purl.org/dc/elements/1.1/"
   xmlns:cc="http://creativecommons.org/ns#"
   xmlns:rdf="http://www.w3.org/1999/02/22-rdf-syntax-ns#"
   xmlns:svg="http://www.w3.org/2000/svg"
   xmlns="http://www.w3.org/2000/svg"
   viewBox="0 0 377.95318 99.498666"
   height="99.498665"
   width="377.95319"
   xml:space="preserve"
   id="svg2"
   version="1.1"><metadata
     id="metadata8"><rdf:RDF><cc:Work
         rdf:about=""><dc:format>image/svg+xml</dc:format><dc:type
           rdf:resource="http://purl.org/dc/dcmitype/StillImage" /><dc:title></dc:title></cc:Work></rdf:RDF></metadata><defs
     id="defs6"><clipPath
       id="clipPath18"
       clipPathUnits="userSpaceOnUse"><path
         id="path16"
         d="M 0,184.252 H 476.22 V 0 H 0 Z" /></clipPath></defs><g
     transform="matrix(1.3333333,0,0,-1.3333333,-127.8564,171.16906)"
     id="g10"><g
       id="g12"><g
         clip-path="url(#clipPath18)"
         id="g14"><g
           transform="translate(303.696,112.6998)"
           id="g20"><path
             id="path22"
             style="fill:#58595b;fill-opacity:1;fill-rule:nonzero;stroke:none"
             d="m 0,0 h 20.659 v -4.605 h -1.496 c 0,0 -0.249,2.362 -2.611,2.362 H 12.946 V -23.519 H 7.838 V -2.243 H 4.104 c -1.986,0 -2.486,-1.618 -2.611,-2.362 H 0 Z" /></g><g
           transform="translate(346.8687,112.6998)"
           id="g24"><path
             id="path26"
             style="fill:#58595b;fill-opacity:1;fill-rule:nonzero;stroke:none"
             d="m 0,0 h 3.733 v -23.519 h -4.98 v 16.425 l -12.316,-16.425 h -3.736 v 19.166 c 0,2.735 -2.365,3.106 -2.365,3.106 V 0 h 7.34 v -16.552 z" /></g><g
           transform="translate(238.8718,89.1796)"
           id="g28"><path
             id="path30"
             style="fill:#58595b;fill-opacity:1;fill-rule:nonzero;stroke:none"
             d="m 0,0 h -6.469 l -4.607,8.712 c 0,0 -1.369,2.611 -2.863,2.611 h -1.864 V 0 h -5.105 v 19.166 c 0,2.735 -2.489,2.979 -2.489,2.979 v 1.374 h 7.594 v -9.826 h 2.237 c 0,0 1.494,0.119 2.738,2.11 3.986,6.474 3.485,7.716 5.228,7.716 h 4.975 v -1.618 c -3.485,0 -4.478,-7.094 -7.841,-9.334 1.624,-0.617 2.243,-2.113 5.85,-8.712 0,0 0.874,-2.234 2.616,-2.234 z" /></g><g
           transform="translate(361.3112,103.3657)"
           id="g32"><path
             id="path34"
             style="fill:#58595b;fill-opacity:1;fill-rule:nonzero;stroke:none"
             d="m 0,0 h 12.194 v 1.247 c 0,3.355 -2.736,6.096 -6.096,6.096 C 2.735,7.343 0,4.602 0,1.247 Z m 16.55,-9.083 c -2.365,-3.235 -5.85,-5.478 -10.452,-5.478 -6.223,0 -12.199,4.856 -12.199,11.204 v 1.366 c 0,6.847 5.476,11.696 12.199,11.696 6.721,0 11.948,-5.474 11.948,-12.07 H 0 v -3.858 c 0,-3.354 2.735,-6.095 6.72,-6.095 3.485,0 5.85,1.491 7.717,3.487 z" /></g><g
           transform="translate(256.4475,113.0698)"
           id="g36"><path
             id="path38"
             style="fill:#58595b;fill-opacity:1;fill-rule:nonzero;stroke:none"
             d="m 0,0 c -2.865,0 -5.6,-1.239 -6.842,-2.984 v 2.613 h -7.47 V -1.74 c 0,0 2.364,-0.37 2.364,-2.987 v -29.869 h 5.106 v 13.195 c 2.362,-2.738 5.47,-2.865 6.469,-2.865 6.593,0.127 11.073,5.227 11.073,11.577 v 1.496 C 10.7,-4.353 6.469,0 0,0 m 4.726,-15.8 c 0,-2.987 -2.115,-5.85 -5.351,-5.977 h -0.492 c -2.863,0 -5.355,2.119 -5.725,4.356 v 10.078 c 0.246,2.367 2.611,4.981 5.725,4.981 h 0.99 c 0,0 4.729,-0.252 4.853,-5.977 z" /></g><g
           transform="translate(178.9026,113.0739)"
           id="g40"><path
             id="path42"
             style="fill:#58595b;fill-opacity:1;fill-rule:nonzero;stroke:none"
             d="m 0,0 c -8.839,0 -12.448,-6.845 -12.448,-11.325 v -1.989 c 0,-5.227 5.105,-10.952 12.448,-10.952 6.845,0 12.567,5.1 12.567,11.077 v 1.62 C 12.567,-5.6 7.838,0 0,0 m 6.469,-15.676 c 0,-3.363 -2.611,-6.347 -6.469,-6.347 -3.858,0 -6.347,2.984 -6.347,6.347 v 7.465 c 0,3.36 2.859,5.971 6.347,5.971 3.858,0 6.469,-2.735 6.469,-6.099 z" /></g><g
           transform="translate(300.2131,112.6998)"
           id="g44"><path
             id="path46"
             style="fill:#58595b;fill-opacity:1;fill-rule:nonzero;stroke:none"
             d="m 0,0 h -7.467 v -1.372 c 0,0 2.486,-0.368 2.486,-3.106 V -23.519 H 0 Z" /></g><g
           transform="translate(278.3041,103.7357)"
           id="g48"><path
             id="path50"
             style="fill:#58595b;fill-opacity:1;fill-rule:nonzero;stroke:none"
             d="M 0,0 V 8.964 H -7.467 V 7.589 c 0,0 2.24,-0.243 2.24,-2.979 V -14.556 H 6.344 c 4.484,0 7.717,2.736 7.717,6.594 v 1.117 C 14.061,-2.605 10.952,0 6.095,0 Z m 0,-12.191 v 9.832 h 4.356 c 2.362,0 4.229,-1.867 4.229,-4.605 v -0.998 c 0,-2.24 -2.113,-4.229 -4.353,-4.229 z" /></g><g
           transform="translate(192.3434,112.6998)"
           id="g52"><path
             id="path54"
             style="fill:#58595b;fill-opacity:1;fill-rule:nonzero;stroke:none"
             d="m 0,0 h 20.659 v -4.605 h -1.496 c 0,0 -0.249,2.362 -2.613,2.362 H 12.94 V -23.519 H 7.838 V -2.243 H 4.104 c -1.991,0 -2.492,-1.618 -2.611,-2.362 H 0 Z" /></g><g
           transform="translate(123.3333,128.3768)"
           id="g56"><path
             id="path58"
             style="fill:#00bbe3;fill-opacity:1;fill-rule:nonzero;stroke:none"
             d="m 0,0 c -15.153,0 -27.441,-12.282 -27.441,-27.435 0,-15.156 12.288,-27.438 27.441,-27.438 15.156,0 27.443,12.282 27.443,27.438 C 27.443,-12.282 15.156,0 0,0 m -5.777,-40.901 c 0.224,-0.119 0.968,-0.6 1.167,-1.554 0.127,-0.692 0.036,-1.295 -0.296,-1.854 -0.412,-0.674 -1.106,-1.045 -1.98,-1.045 -0.448,0 -0.913,0.111 -1.336,0.307 l -1.289,0.603 c -5.595,2.965 -9.069,8.955 -9.069,15.631 v 2.752 c 0,6.674 3.482,12.664 9.099,15.646 0.053,0.019 1.259,0.591 1.259,0.591 0.423,0.2 0.888,0.302 1.333,0.302 0.871,0 1.571,-0.376 1.983,-1.048 0.332,-0.551 0.423,-1.159 0.296,-1.848 -0.222,-1.106 -1.195,-1.574 -1.206,-1.582 -3.266,-1.479 -5.377,-4.842 -5.377,-8.57 v -9.738 c 0,-3.723 2.113,-7.094 5.416,-8.593 m 24.359,12.088 c 0,-6.676 -3.473,-12.666 -9.071,-15.631 l -1.283,-0.603 c -0.423,-0.196 -0.891,-0.307 -1.339,-0.307 -0.874,0 -1.568,0.371 -1.98,1.045 -0.329,0.559 -0.42,1.162 -0.296,1.854 0.196,0.954 0.943,1.435 1.164,1.554 3.303,1.499 5.424,4.87 5.424,8.593 v 9.738 c 0,3.728 -2.113,7.091 -5.382,8.57 -0.006,0.008 -0.982,0.476 -1.206,1.582 -0.124,0.689 -0.033,1.297 0.296,1.848 0.412,0.672 1.106,1.048 1.98,1.048 0.448,0 0.916,-0.102 1.336,-0.302 0,0 1.209,-0.572 1.256,-0.591 5.622,-2.982 9.101,-8.972 9.101,-15.646 z" /></g><g
           transform="translate(172.3884,61.345)"
           id="g60"><path
             id="path62"
             style="fill:#58595b;fill-opacity:1;fill-rule:nonzero;stroke:none"
             d="m 0,0 h -1.906 v -5.545 h 1.768 c 2.143,0 3.415,0.885 3.415,2.837 C 3.277,-0.91 2.138,0 0,0 M -0.246,-7.434 H -4.035 V 8.244 H 4.071 L 4.392,6.292 H -1.906 V 1.883 h 2.025 c 3.313,0 5.316,-1.612 5.316,-4.522 0,-3.202 -2.271,-4.795 -5.681,-4.795" /></g><g
           transform="translate(184.8366,60.4995)"
           id="g64"><path
             id="path66"
             style="fill:#58595b;fill-opacity:1;fill-rule:nonzero;stroke:none"
             d="m 0,0 h 4.997 l -2.5,6.66 z M 1.477,9.16 H 3.612 L 9.655,-6.292 7.547,-6.745 5.7,-1.881 h -6.383 l -1.754,-4.707 h -2.229 z" /></g><g
           transform="translate(208.0448,53.9123)"
           id="g68"><path
             id="path70"
             style="fill:#58595b;fill-opacity:1;fill-rule:nonzero;stroke:none"
             d="M 0,0 V 7.226 H -7.926 V 0 h -2.141 v 15.678 h 2.141 V 9.179 H 0 v 6.499 H 2.132 V 0 Z" /></g><g
           transform="translate(224.2146,53.7528)"
           id="g72"><path
             id="path74"
             style="fill:#58595b;fill-opacity:1;fill-rule:nonzero;stroke:none"
             d="M 0,0 -7.246,8.112 V 0.16 h -2.141 v 15.679 h 2.141 V 8.795 l 6.496,7.044 H 1.977 L -4.931,8.474 2.364,0.503 Z" /></g></g></g></g></svg>